<svg width="46" height="48" viewBox="0 0 46 48" fill="none" xmlns="http://www.w3.org/2000/svg">
<path d="M45.1617 29.26L40.828 25.81C40.883 25.278 40.9301 24.6561 40.9301 23.998C40.9301 23.34 40.8849 22.7181 40.828 22.186L45.1657 18.7341C45.9712 18.0861 46.1912 16.936 45.6784 15.9781L41.1717 8.04C40.6904 7.14403 39.6354 6.684 38.5648 7.086L33.4511 9.17597C32.4708 8.45597 31.4433 7.848 30.3805 7.362L29.6026 1.84003C29.4749 0.792 28.579 0 27.5202 0H18.4834C17.4245 0 16.5307 0.792 16.4049 1.824L15.625 7.36603C14.5955 7.83806 13.5838 8.43806 12.5603 9.18L7.43285 7.08403C6.4721 6.70603 5.32284 7.12997 4.84546 8.022L0.33298 15.97C-0.199379 16.8861 0.0206183 18.076 0.84379 18.7401L5.17753 22.1901C5.10874 22.864 5.0754 23.4501 5.0754 24.0001C5.0754 24.5501 5.10883 25.1361 5.17753 25.8121L0.83983 29.2641C0.0343394 29.914 -0.183724 31.0641 0.32902 32.02L4.8357 39.958C5.31704 40.852 6.36214 41.316 7.44261 40.912L12.5563 38.8221C13.5347 39.5401 14.5621 40.1481 15.625 40.636L16.4029 46.156C16.5306 47.208 17.4245 48 18.4853 48H27.5221C28.5811 48 29.4769 47.208 29.6026 46.176L30.3825 40.636C31.4119 40.162 32.4217 39.564 33.4472 38.82L38.5746 40.916C38.8221 41.0139 39.0795 41.064 39.3447 41.064C40.1069 41.064 40.8083 40.64 41.1619 39.98L45.6882 32C46.1912 31.064 45.9711 29.914 45.1617 29.26ZM23.0017 32C18.668 32 15.1436 28.412 15.1436 24C15.1436 19.588 18.668 16 23.0017 16C27.3355 16 30.8599 19.588 30.8599 24C30.8599 28.412 27.3355 32 23.0017 32Z" fill="#FD5056"/>
</svg>
