<svg width="714" height="792" viewBox="0 0 714 792" fill="none" xmlns="http://www.w3.org/2000/svg">
<rect x="125" y="270" width="408" height="485" rx="20" fill="#F6F8FC"/>
<mask id="mask0_0_136" style="mask-type:alpha" maskUnits="userSpaceOnUse" x="125" y="270" width="409" height="485">
<rect x="125" y="270" width="408" height="485" rx="20" fill="#EDFBFF"/>
</mask>
<g mask="url(#mask0_0_136)">
<path d="M120 317.5C135.667 294 181.7 241 240.5 217M549 376C525.333 367 470 347 438 339C398 329 372.5 248 493 180.5M541 589.5C529 628.833 488.2 688.7 395 631.5M550.5 664C541.333 678.833 507.8 705.6 447 694M375 694C400.333 716.667 476.2 768.2 541 733M270 684.5C268.667 700.167 284.3 738.5 357.5 766.5M225.5 777C212.333 758.5 182.4 714.1 168 684.5C150 647.5 120 418 225.5 376" stroke="#E2EDFF" stroke-width="2"/>
</g>
<g filter="url(#filter0_f_0_136)">
<rect x="287.88" y="382" width="209" height="113" fill="#BCC9E4"/>
</g>
<g filter="url(#filter1_d_0_136)">
<g filter="url(#filter2_d_0_136)">
<rect x="239.604" y="157" width="303.554" height="382" rx="13.6429" fill="#316AFF"/>
</g>
</g>
<g clip-path="url(#clip0_0_136)">
<path d="M337.386 378.054V367.216H338.614V376.875H344.524V378.054H337.386ZM348.791 378.185C347.994 378.185 347.296 377.999 346.696 377.628C346.106 377.246 345.648 376.733 345.32 376.089C344.993 375.445 344.829 374.736 344.829 373.961C344.829 373.175 344.993 372.465 345.32 371.832C345.648 371.189 346.106 370.681 346.696 370.31C347.296 369.928 347.994 369.737 348.791 369.737C349.468 369.737 350.046 369.868 350.526 370.13C351.018 370.392 351.416 370.746 351.722 371.194V369.868H352.949V378.054H351.722V376.744C351.416 377.18 351.018 377.53 350.526 377.792C350.046 378.054 349.468 378.185 348.791 378.185ZM348.955 377.071C349.566 377.071 350.079 376.929 350.494 376.646C350.919 376.362 351.241 375.985 351.46 375.516C351.678 375.036 351.787 374.517 351.787 373.961C351.787 373.393 351.678 372.875 351.46 372.405C351.241 371.936 350.919 371.56 350.494 371.276C350.079 370.992 349.566 370.85 348.955 370.85C348.355 370.85 347.836 370.992 347.4 371.276C346.963 371.56 346.63 371.936 346.401 372.405C346.172 372.875 346.057 373.393 346.057 373.961C346.057 374.517 346.172 375.036 346.401 375.516C346.63 375.985 346.963 376.362 347.4 376.646C347.836 376.929 348.355 377.071 348.955 377.071ZM355.616 378.054V370.948H353.946V369.868H355.616V366.937H356.844V369.868H358.727V370.948H356.844V378.054H355.616ZM363.206 378.185C362.376 378.185 361.65 377.999 361.028 377.628C360.406 377.246 359.92 376.733 359.571 376.089C359.233 375.445 359.064 374.736 359.064 373.961C359.064 373.175 359.227 372.465 359.555 371.832C359.882 371.189 360.352 370.681 360.963 370.31C361.574 369.928 362.294 369.737 363.124 369.737C363.964 369.737 364.684 369.928 365.285 370.31C365.896 370.681 366.365 371.189 366.693 371.832C367.02 372.465 367.184 373.175 367.184 373.961V374.452H360.324C360.39 374.932 360.543 375.374 360.783 375.778C361.034 376.171 361.367 376.487 361.781 376.728C362.196 376.957 362.676 377.071 363.222 377.071C363.8 377.071 364.286 376.946 364.679 376.695C365.072 376.433 365.378 376.1 365.596 375.696H366.938C366.655 376.427 366.202 377.028 365.579 377.497C364.968 377.955 364.177 378.185 363.206 378.185ZM360.341 373.306H365.907C365.798 372.607 365.503 372.023 365.023 371.554C364.543 371.085 363.91 370.85 363.124 370.85C362.338 370.85 361.705 371.085 361.225 371.554C360.755 372.023 360.461 372.607 360.341 373.306ZM371.323 378.185C370.57 378.185 369.931 378.059 369.407 377.808C368.894 377.557 368.501 377.23 368.228 376.826C367.956 376.411 367.803 375.964 367.77 375.483H369.047C369.08 375.756 369.173 376.024 369.325 376.285C369.489 376.537 369.735 376.744 370.062 376.908C370.39 377.06 370.815 377.137 371.339 377.137C371.503 377.137 371.705 377.12 371.945 377.088C372.185 377.055 372.414 376.995 372.632 376.908C372.862 376.82 373.053 376.689 373.205 376.515C373.358 376.34 373.435 376.116 373.435 375.843C373.435 375.505 373.304 375.243 373.042 375.058C372.78 374.872 372.441 374.73 372.027 374.632C371.612 374.523 371.17 374.419 370.701 374.321C370.242 374.223 369.806 374.097 369.391 373.944C368.976 373.781 368.638 373.557 368.376 373.273C368.114 372.978 367.983 372.58 367.983 372.078C367.983 371.336 368.25 370.763 368.785 370.359C369.331 369.944 370.133 369.737 371.192 369.737C371.912 369.737 372.496 369.852 372.943 370.081C373.402 370.299 373.746 370.583 373.975 370.932C374.215 371.281 374.357 371.658 374.401 372.062H373.156C373.113 371.712 372.938 371.412 372.632 371.161C372.338 370.91 371.847 370.785 371.159 370.785C369.86 370.785 369.211 371.178 369.211 371.963C369.211 372.291 369.342 372.542 369.604 372.717C369.866 372.891 370.204 373.033 370.619 373.142C371.033 373.24 371.47 373.339 371.928 373.437C372.398 373.524 372.84 373.65 373.255 373.813C373.669 373.977 374.008 374.212 374.27 374.517C374.531 374.812 374.662 375.216 374.662 375.729C374.662 376.526 374.357 377.137 373.746 377.562C373.145 377.977 372.338 378.185 371.323 378.185ZM376.784 378.054V370.948H375.114V369.868H376.784V366.937H378.012V369.868H379.895V370.948H378.012V378.054H376.784ZM384.305 378.054V367.216H389.184C390.341 367.216 391.252 367.532 391.918 368.165C392.583 368.787 392.916 369.633 392.916 370.703C392.916 371.772 392.583 372.624 391.918 373.257C391.252 373.879 390.341 374.19 389.184 374.19H385.533V378.054H384.305ZM385.533 373.044H389.102C389.953 373.044 390.597 372.837 391.034 372.422C391.47 372.007 391.688 371.434 391.688 370.703C391.688 369.982 391.47 369.415 391.034 369C390.597 368.585 389.953 368.378 389.102 368.378H385.533V373.044ZM393.982 378.054V369.868H395.21V371.882C395.254 371.74 395.335 371.554 395.455 371.325C395.586 371.085 395.772 370.845 396.012 370.605C396.252 370.364 396.552 370.163 396.913 369.999C397.284 369.824 397.72 369.737 398.222 369.737H398.304V370.965H398.157C397.546 370.965 397.016 371.134 396.569 371.472C396.132 371.8 395.794 372.231 395.554 372.766C395.325 373.29 395.21 373.852 395.21 374.452V378.054H393.982ZM402.629 378.185C401.8 378.185 401.08 377.999 400.468 377.628C399.857 377.246 399.388 376.733 399.06 376.089C398.733 375.445 398.569 374.736 398.569 373.961C398.569 373.175 398.733 372.465 399.06 371.832C399.388 371.189 399.857 370.681 400.468 370.31C401.08 369.928 401.8 369.737 402.629 369.737C403.47 369.737 404.19 369.928 404.79 370.31C405.402 370.681 405.871 371.189 406.198 371.832C406.526 372.465 406.69 373.175 406.69 373.961C406.69 374.736 406.526 375.445 406.198 376.089C405.871 376.733 405.402 377.246 404.79 377.628C404.19 377.999 403.47 378.185 402.629 378.185ZM402.629 377.071C403.241 377.071 403.754 376.929 404.168 376.646C404.594 376.362 404.916 375.985 405.134 375.516C405.353 375.036 405.462 374.517 405.462 373.961C405.462 373.393 405.353 372.875 405.134 372.405C404.916 371.936 404.594 371.56 404.168 371.276C403.754 370.992 403.241 370.85 402.629 370.85C402.029 370.85 401.516 370.992 401.091 371.276C400.665 371.56 400.343 371.936 400.125 372.405C399.906 372.875 399.797 373.393 399.797 373.961C399.797 374.517 399.906 375.036 400.125 375.516C400.343 375.985 400.665 376.362 401.091 376.646C401.516 376.929 402.029 377.071 402.629 377.071ZM411.431 378.185C410.634 378.185 409.936 377.999 409.335 377.628C408.746 377.246 408.288 376.733 407.96 376.089C407.633 375.445 407.469 374.736 407.469 373.961C407.469 373.175 407.633 372.465 407.96 371.832C408.288 371.189 408.746 370.681 409.335 370.31C409.936 369.928 410.634 369.737 411.431 369.737C412.108 369.737 412.686 369.868 413.166 370.13C413.658 370.392 414.056 370.746 414.362 371.194V366.594H415.589V378.054H414.362V376.744C414.056 377.18 413.658 377.53 413.166 377.792C412.686 378.054 412.108 378.185 411.431 378.185ZM411.595 377.071C412.206 377.071 412.719 376.929 413.134 376.646C413.559 376.362 413.881 375.985 414.1 375.516C414.318 375.036 414.427 374.517 414.427 373.961C414.427 373.393 414.318 372.875 414.1 372.405C413.881 371.936 413.559 371.56 413.134 371.276C412.719 370.992 412.206 370.85 411.595 370.85C410.994 370.85 410.476 370.992 410.039 371.276C409.603 371.56 409.27 371.936 409.041 372.405C408.812 372.875 408.697 373.393 408.697 373.961C408.697 374.517 408.812 375.036 409.041 375.516C409.27 375.985 409.603 376.362 410.039 376.646C410.476 376.929 410.994 377.071 411.595 377.071ZM420.565 378.185C420.008 378.185 419.479 378.054 418.977 377.792C418.474 377.519 418.065 377.12 417.749 376.597C417.443 376.062 417.29 375.407 417.29 374.632V369.868H418.518V374.599C418.518 375.341 418.731 375.942 419.157 376.4C419.593 376.848 420.144 377.071 420.81 377.071C421.269 377.071 421.683 376.968 422.054 376.76C422.425 376.542 422.72 376.247 422.938 375.876C423.168 375.505 423.282 375.074 423.282 374.583V369.868H424.51V378.054H423.282V376.777C422.988 377.17 422.627 377.502 422.202 377.775C421.776 378.048 421.23 378.185 420.565 378.185ZM429.824 378.185C429.005 378.185 428.296 377.999 427.695 377.628C427.095 377.246 426.626 376.733 426.288 376.089C425.96 375.445 425.796 374.736 425.796 373.961C425.796 373.175 425.96 372.465 426.288 371.832C426.626 371.189 427.095 370.681 427.695 370.31C428.296 369.928 429.005 369.737 429.824 369.737C430.795 369.737 431.619 369.988 432.296 370.49C432.983 370.992 433.447 371.641 433.687 372.438H432.361C432.176 371.969 431.876 371.587 431.461 371.292C431.057 370.998 430.566 370.85 429.987 370.85C429.387 370.85 428.863 370.992 428.416 371.276C427.968 371.56 427.625 371.936 427.384 372.405C427.144 372.875 427.024 373.393 427.024 373.961C427.024 374.517 427.144 375.036 427.384 375.516C427.625 375.985 427.968 376.362 428.416 376.646C428.863 376.929 429.387 377.071 429.987 377.071C430.566 377.071 431.057 376.924 431.461 376.629C431.876 376.335 432.176 375.953 432.361 375.483H433.687C433.447 376.28 432.983 376.929 432.296 377.431C431.619 377.934 430.795 378.185 429.824 378.185ZM435.752 378.054V370.948H434.082V369.868H435.752V366.937H436.98V369.868H438.863V370.948H436.98V378.054H435.752ZM442.846 378.185C442.093 378.185 441.455 378.059 440.931 377.808C440.418 377.557 440.025 377.23 439.752 376.826C439.479 376.411 439.327 375.964 439.294 375.483H440.571C440.604 375.756 440.696 376.024 440.849 376.285C441.013 376.537 441.258 376.744 441.586 376.908C441.913 377.06 442.339 377.137 442.863 377.137C443.027 377.137 443.228 377.12 443.469 377.088C443.709 377.055 443.938 376.995 444.156 376.908C444.385 376.82 444.576 376.689 444.729 376.515C444.882 376.34 444.958 376.116 444.958 375.843C444.958 375.505 444.827 375.243 444.565 375.058C444.303 374.872 443.965 374.73 443.55 374.632C443.136 374.523 442.694 374.419 442.224 374.321C441.766 374.223 441.329 374.097 440.915 373.944C440.5 373.781 440.162 373.557 439.9 373.273C439.638 372.978 439.507 372.58 439.507 372.078C439.507 371.336 439.774 370.763 440.309 370.359C440.855 369.944 441.657 369.737 442.715 369.737C443.436 369.737 444.02 369.852 444.467 370.081C444.926 370.299 445.269 370.583 445.499 370.932C445.739 371.281 445.881 371.658 445.924 372.062H444.68C444.636 371.712 444.462 371.412 444.156 371.161C443.861 370.91 443.37 370.785 442.683 370.785C441.384 370.785 440.735 371.178 440.735 371.963C440.735 372.291 440.865 372.542 441.127 372.717C441.389 372.891 441.728 373.033 442.142 373.142C442.557 373.24 442.994 373.339 443.452 373.437C443.921 373.524 444.364 373.65 444.778 373.813C445.193 373.977 445.531 374.212 445.793 374.517C446.055 374.812 446.186 375.216 446.186 375.729C446.186 376.526 445.881 377.137 445.269 377.562C444.669 377.977 443.861 378.185 442.846 378.185Z" fill="white"/>
<path opacity="0.5" d="M331.723 403.986L332.825 403.975L334.659 397.852L336.427 403.975H337.54L339.745 396.368H338.675L337.005 402.796L335.259 396.368H334.146L332.312 402.818L330.653 396.368H329.594L331.723 403.986ZM343.275 398.736C344.301 398.736 345.174 399.38 345.164 400.548H341.387C341.496 399.38 342.304 398.736 343.275 398.736ZM346.069 402.131H345C344.782 402.774 344.214 403.233 343.319 403.233C342.304 403.233 341.453 402.567 341.376 401.356H346.157C346.179 401.148 346.189 400.974 346.189 400.755C346.189 399.118 345.054 397.896 343.319 397.896C341.573 397.896 340.361 399.085 340.361 400.974C340.361 402.873 341.616 404.073 343.319 404.073C344.803 404.073 345.764 403.222 346.069 402.131ZM349.841 400.963C349.841 402.818 351.074 404.073 352.678 404.073C353.77 404.073 354.545 403.517 354.905 402.851V403.975H355.909V395.898H354.905V399.064C354.49 398.376 353.628 397.896 352.689 397.896C351.074 397.896 349.841 399.096 349.841 400.963ZM354.905 400.974C354.905 402.382 353.966 403.2 352.875 403.2C351.783 403.2 350.856 402.371 350.856 400.963C350.856 399.555 351.783 398.758 352.875 398.758C353.966 398.758 354.905 399.587 354.905 400.974ZM360.031 398.736C361.057 398.736 361.93 399.38 361.919 400.548H358.143C358.252 399.38 359.06 398.736 360.031 398.736ZM362.825 402.131H361.756C361.537 402.774 360.97 403.233 360.075 403.233C359.06 403.233 358.209 402.567 358.132 401.356H362.913C362.934 401.148 362.945 400.974 362.945 400.755C362.945 399.118 361.81 397.896 360.075 397.896C358.329 397.896 357.117 399.085 357.117 400.974C357.117 402.873 358.372 404.073 360.075 404.073C361.559 404.073 362.52 403.222 362.825 402.131ZM368.457 402.349C368.414 400.21 364.943 400.985 364.943 399.566C364.943 399.085 365.38 398.736 366.111 398.736C366.908 398.736 367.366 399.173 367.41 399.773H368.403C368.337 398.605 367.464 397.896 366.144 397.896C364.812 397.896 363.95 398.649 363.95 399.566C363.95 401.792 367.486 401.017 367.486 402.349C367.486 402.84 367.049 403.233 366.264 403.233C365.423 403.233 364.91 402.796 364.856 402.218H363.83C363.895 403.309 364.877 404.073 366.275 404.073C367.595 404.073 368.457 403.331 368.457 402.349ZM369.76 403.975H370.753V397.994H369.76V403.975ZM370.273 397.023C370.633 397.023 370.928 396.728 370.928 396.346C370.928 395.964 370.633 395.669 370.273 395.669C369.891 395.669 369.596 395.964 369.596 396.346C369.596 396.728 369.891 397.023 370.273 397.023ZM371.976 400.963C371.976 402.818 373.209 404.073 374.814 404.073C375.905 404.073 376.68 403.495 377.04 402.851V404.106C377.04 405.383 376.243 406.06 375.185 406.06C374.202 406.06 373.493 405.569 373.275 404.848H372.292C372.489 406.125 373.613 406.922 375.185 406.922C376.942 406.922 378.044 405.754 378.044 404.106V397.994H377.04V399.085C376.691 398.441 375.905 397.896 374.814 397.896C373.209 397.896 371.976 399.096 371.976 400.963ZM377.04 400.974C377.04 402.382 376.101 403.2 375.01 403.2C373.919 403.2 372.991 402.371 372.991 400.963C372.991 399.555 373.919 398.758 375.01 398.758C376.101 398.758 377.04 399.587 377.04 400.974ZM384 403.975H384.982V400.45C384.982 398.736 383.924 397.885 382.537 397.885C381.73 397.885 381.009 398.223 380.617 398.845V397.994H379.623V403.975H380.617V400.668C380.617 399.38 381.315 398.747 382.33 398.747C383.334 398.747 384 399.369 384 400.592V403.975ZM393.616 402.349C393.573 400.21 390.102 400.985 390.102 399.566C390.102 399.085 390.538 398.736 391.27 398.736C392.066 398.736 392.525 399.173 392.568 399.773H393.562C393.496 398.605 392.623 397.896 391.302 397.896C389.971 397.896 389.109 398.649 389.109 399.566C389.109 401.792 392.645 401.017 392.645 402.349C392.645 402.84 392.208 403.233 391.422 403.233C390.582 403.233 390.069 402.796 390.015 402.218H388.989C389.054 403.309 390.036 404.073 391.433 404.073C392.754 404.073 393.616 403.331 393.616 402.349ZM400.595 400.974C400.595 399.085 399.274 397.896 397.571 397.896C395.88 397.896 394.548 399.085 394.548 400.974C394.548 402.873 395.836 404.073 397.528 404.073C399.23 404.073 400.595 402.873 400.595 400.974ZM395.563 400.974C395.563 399.467 396.513 398.758 397.56 398.758C398.586 398.758 399.579 399.467 399.579 400.974C399.579 402.491 398.564 403.2 397.528 403.2C396.491 403.2 395.563 402.491 395.563 400.974ZM401.801 403.975H402.794V395.898H401.801V403.975ZM409.692 397.994H408.699V401.279C408.699 402.567 408.011 403.2 406.985 403.2C405.981 403.2 405.316 402.578 405.316 401.367V397.994H404.333V401.497C404.333 403.211 405.414 404.062 406.789 404.062C407.586 404.062 408.317 403.713 408.699 403.091V403.975H409.692V397.994ZM411.488 402.338C411.488 403.538 412.089 403.975 413.147 403.975H414.042V403.135H413.311C412.7 403.135 412.481 402.927 412.481 402.338V398.813H414.042V397.994H412.481V396.488H411.488V397.994H410.713V398.813H411.488V402.338ZM415.146 403.975H416.14V397.994H415.146V403.975ZM415.659 397.023C416.019 397.023 416.314 396.728 416.314 396.346C416.314 395.964 416.019 395.669 415.659 395.669C415.277 395.669 414.983 395.964 414.983 396.346C414.983 396.728 415.277 397.023 415.659 397.023ZM423.408 400.974C423.408 399.085 422.088 397.896 420.385 397.896C418.694 397.896 417.362 399.085 417.362 400.974C417.362 402.873 418.65 404.073 420.342 404.073C422.044 404.073 423.408 402.873 423.408 400.974ZM418.377 400.974C418.377 399.467 419.327 398.758 420.374 398.758C421.4 398.758 422.393 399.467 422.393 400.974C422.393 402.491 421.378 403.2 420.342 403.2C419.305 403.2 418.377 402.491 418.377 400.974ZM428.992 403.975H429.974V400.45C429.974 398.736 428.915 397.885 427.529 397.885C426.722 397.885 426.001 398.223 425.608 398.845V397.994H424.615V403.975H425.608V400.668C425.608 399.38 426.307 398.747 427.322 398.747C428.326 398.747 428.992 399.369 428.992 400.592V403.975ZM435.797 402.349C435.754 400.21 432.283 400.985 432.283 399.566C432.283 399.085 432.72 398.736 433.451 398.736C434.248 398.736 434.706 399.173 434.75 399.773H435.743C435.677 398.605 434.804 397.896 433.484 397.896C432.152 397.896 431.29 398.649 431.29 399.566C431.29 401.792 434.826 401.017 434.826 402.349C434.826 402.84 434.39 403.233 433.604 403.233C432.763 403.233 432.25 402.796 432.196 402.218H431.17C431.235 403.309 432.218 404.073 433.615 404.073C434.935 404.073 435.797 403.331 435.797 402.349ZM440.096 403.975H441.09V398.813H442.345V397.994H441.09V397.568C441.09 396.793 441.384 396.466 442.279 396.466V395.637C440.751 395.637 440.096 396.237 440.096 397.568V397.994H439.321V398.813H440.096V403.975ZM449.079 400.974C449.079 399.085 447.758 397.896 446.056 397.896C444.364 397.896 443.032 399.085 443.032 400.974C443.032 402.873 444.32 404.073 446.012 404.073C447.715 404.073 449.079 402.873 449.079 400.974ZM444.047 400.974C444.047 399.467 444.997 398.758 446.045 398.758C447.071 398.758 448.064 399.467 448.064 400.974C448.064 402.491 447.049 403.2 446.012 403.2C444.975 403.2 444.047 402.491 444.047 400.974ZM451.279 400.723C451.279 399.336 451.999 398.911 452.949 398.911H453.211V397.885C452.261 397.885 451.617 398.3 451.279 398.965V397.994H450.286V403.975H451.279V400.723ZM341.85 417.963C341.85 419.818 343.083 421.073 344.688 421.073C345.779 421.073 346.554 420.517 346.914 419.851V420.975H347.918V412.898H346.914V416.064C346.5 415.376 345.637 414.896 344.699 414.896C343.083 414.896 341.85 416.096 341.85 417.963ZM346.914 417.974C346.914 419.382 345.976 420.2 344.884 420.2C343.793 420.2 342.865 419.371 342.865 417.963C342.865 416.555 343.793 415.758 344.884 415.758C345.976 415.758 346.914 416.587 346.914 417.974ZM349.498 420.975H350.491V414.994H349.498V420.975ZM350.011 414.023C350.371 414.023 350.665 413.728 350.665 413.346C350.665 412.964 350.371 412.669 350.011 412.669C349.629 412.669 349.334 412.964 349.334 413.346C349.334 413.728 349.629 414.023 350.011 414.023ZM351.713 417.963C351.713 419.818 352.947 421.073 354.551 421.073C355.642 421.073 356.417 420.495 356.778 419.851V421.106C356.778 422.383 355.981 423.06 354.922 423.06C353.94 423.06 353.23 422.569 353.012 421.848H352.03C352.226 423.125 353.35 423.922 354.922 423.922C356.679 423.922 357.782 422.754 357.782 421.106V414.994H356.778V416.085C356.428 415.441 355.642 414.896 354.551 414.896C352.947 414.896 351.713 416.096 351.713 417.963ZM356.778 417.974C356.778 419.382 355.839 420.2 354.747 420.2C353.656 420.2 352.728 419.371 352.728 417.963C352.728 416.555 353.656 415.758 354.747 415.758C355.839 415.758 356.778 416.587 356.778 417.974ZM359.361 420.975H360.354V414.994H359.361V420.975ZM359.874 414.023C360.234 414.023 360.529 413.728 360.529 413.346C360.529 412.964 360.234 412.669 359.874 412.669C359.492 412.669 359.197 412.964 359.197 413.346C359.197 413.728 359.492 414.023 359.874 414.023ZM362.166 419.338C362.166 420.538 362.766 420.975 363.825 420.975H364.72V420.135H363.989C363.377 420.135 363.159 419.927 363.159 419.338V415.813H364.72V414.994H363.159V413.488H362.166V414.994H361.391V415.813H362.166V419.338ZM365.453 417.963C365.453 419.818 366.686 421.073 368.28 421.073C369.382 421.073 370.157 420.506 370.517 419.862V420.975H371.521V414.994H370.517V416.085C370.168 415.463 369.404 414.896 368.291 414.896C366.686 414.896 365.453 416.096 365.453 417.963ZM370.517 417.974C370.517 419.382 369.578 420.2 368.487 420.2C367.396 420.2 366.468 419.371 366.468 417.963C366.468 416.555 367.396 415.758 368.487 415.758C369.578 415.758 370.517 416.587 370.517 417.974ZM373.1 420.975H374.094V412.898H373.1V420.975ZM378.498 420.975H379.491V414.994H378.498V420.975ZM379.011 414.023C379.371 414.023 379.665 413.728 379.665 413.346C379.665 412.964 379.371 412.669 379.011 412.669C378.629 412.669 378.334 412.964 378.334 413.346C378.334 413.728 378.629 414.023 379.011 414.023ZM385.461 420.975H386.443V417.45C386.443 415.736 385.385 414.885 383.998 414.885C383.191 414.885 382.47 415.223 382.078 415.845V414.994H381.084V420.975H382.078V417.668C382.078 416.38 382.776 415.747 383.791 415.747C384.795 415.747 385.461 416.369 385.461 417.592V420.975ZM388.185 419.338C388.185 420.538 388.785 420.975 389.844 420.975H390.739V420.135H390.007C389.396 420.135 389.178 419.927 389.178 419.338V415.813H390.739V414.994H389.178V413.488H388.185V414.994H387.41V415.813H388.185V419.338ZM394.386 415.736C395.412 415.736 396.285 416.38 396.274 417.548H392.498C392.607 416.38 393.414 415.736 394.386 415.736ZM397.18 419.131H396.11C395.892 419.774 395.324 420.233 394.43 420.233C393.414 420.233 392.563 419.567 392.487 418.356H397.267C397.289 418.148 397.3 417.974 397.3 417.755C397.3 416.118 396.165 414.896 394.43 414.896C392.683 414.896 391.472 416.085 391.472 417.974C391.472 419.873 392.727 421.073 394.43 421.073C395.914 421.073 396.874 420.222 397.18 419.131ZM399.505 417.723C399.505 416.336 400.225 415.911 401.175 415.911H401.437V414.885C400.487 414.885 399.843 415.3 399.505 415.965V414.994H398.512V420.975H399.505V417.723ZM402.113 417.963C402.113 419.818 403.346 421.073 404.94 421.073C406.042 421.073 406.817 420.506 407.177 419.862V420.975H408.181V414.994H407.177V416.085C406.828 415.463 406.064 414.896 404.951 414.896C403.346 414.896 402.113 416.096 402.113 417.963ZM407.177 417.974C407.177 419.382 406.239 420.2 405.147 420.2C404.056 420.2 403.128 419.371 403.128 417.963C403.128 416.555 404.056 415.758 405.147 415.758C406.239 415.758 407.177 416.587 407.177 417.974ZM409.389 417.974C409.389 419.873 410.601 421.073 412.304 421.073C413.788 421.073 414.759 420.244 415.065 419.054H413.995C413.777 419.807 413.188 420.233 412.304 420.233C411.212 420.233 410.404 419.458 410.404 417.974C410.404 416.511 411.212 415.736 412.304 415.736C413.188 415.736 413.788 416.195 413.995 416.915H415.065C414.759 415.66 413.788 414.896 412.304 414.896C410.601 414.896 409.389 416.096 409.389 417.974ZM416.509 419.338C416.509 420.538 417.109 420.975 418.168 420.975H419.063V420.135H418.332C417.721 420.135 417.502 419.927 417.502 419.338V415.813H419.063V414.994H417.502V413.488H416.509V414.994H415.734V415.813H416.509V419.338ZM420.167 420.975H421.16V414.994H420.167V420.975ZM420.68 414.023C421.04 414.023 421.335 413.728 421.335 413.346C421.335 412.964 421.04 412.669 420.68 412.669C420.298 412.669 420.004 412.964 420.004 413.346C420.004 413.728 420.298 414.023 420.68 414.023ZM428.429 417.974C428.429 416.085 427.109 414.896 425.406 414.896C423.714 414.896 422.383 416.085 422.383 417.974C422.383 419.873 423.671 421.073 425.363 421.073C427.065 421.073 428.429 419.873 428.429 417.974ZM423.398 417.974C423.398 416.467 424.347 415.758 425.395 415.758C426.421 415.758 427.414 416.467 427.414 417.974C427.414 419.491 426.399 420.2 425.363 420.2C424.326 420.2 423.398 419.491 423.398 417.974ZM434.013 420.975H434.995V417.45C434.995 415.736 433.936 414.885 432.55 414.885C431.743 414.885 431.022 415.223 430.629 415.845V414.994H429.636V420.975H430.629V417.668C430.629 416.38 431.328 415.747 432.343 415.747C433.347 415.747 434.013 416.369 434.013 417.592V420.975ZM440.818 419.349C440.775 417.21 437.304 417.985 437.304 416.566C437.304 416.085 437.741 415.736 438.472 415.736C439.269 415.736 439.727 416.173 439.771 416.773H440.764C440.698 415.605 439.825 414.896 438.505 414.896C437.173 414.896 436.311 415.649 436.311 416.566C436.311 418.792 439.847 418.017 439.847 419.349C439.847 419.84 439.41 420.233 438.625 420.233C437.784 420.233 437.271 419.796 437.217 419.218H436.191C436.256 420.309 437.239 421.073 438.636 421.073C439.956 421.073 440.818 420.331 440.818 419.349Z" fill="white"/>
<path fill-rule="evenodd" clip-rule="evenodd" d="M307.136 325.489C307.136 279.527 344.395 242.268 390.357 242.268C436.319 242.268 473.579 279.527 473.579 325.489C473.579 326.307 473.539 327.309 473.478 328.362C473.256 332.232 469.478 334.814 465.733 333.81C464.124 333.379 463.052 331.863 463.155 330.2C463.251 328.633 463.347 326.759 463.347 325.489C463.347 285.178 430.668 252.5 390.357 252.5C350.046 252.5 317.368 285.178 317.368 325.489C317.368 326.444 317.422 327.727 317.492 328.981C317.632 331.517 315.959 333.817 313.485 334.391C310.457 335.095 307.501 332.963 307.308 329.86C307.211 328.286 307.136 326.689 307.136 325.489Z" fill="white"/>
<path fill-rule="evenodd" clip-rule="evenodd" d="M313.778 334.574C310.689 335.485 307.537 333.338 307.333 330.123C307.222 328.383 307.136 326.652 307.136 325.489C307.136 279.527 344.395 242.268 390.357 242.268C404.208 242.268 416.447 245.098 427.912 251.086C433.729 254.125 439.44 257.993 444.929 262.656C450.47 267.365 436.285 269.38 430.157 265.466C425.053 262.207 419.026 258.676 414.639 257.091C407.606 254.55 400.028 252.5 390.357 252.5C350.046 252.5 317.368 285.178 317.368 325.489C317.368 326.643 317.422 327.979 317.491 329.22C317.626 331.648 316.111 333.887 313.778 334.574Z" fill="#5CCB75"/>
<path opacity="0.5" d="M308.82 345.376C308.82 347.668 309.387 349.404 311.57 349.404C313.742 349.404 314.31 347.668 314.31 345.376C314.31 343.117 313.742 341.393 311.57 341.393C309.387 341.393 308.82 343.117 308.82 345.376ZM313.327 345.376C313.327 347.079 313.12 348.498 311.57 348.498C310.009 348.498 309.802 347.079 309.802 345.376C309.802 343.739 310.009 342.298 311.57 342.298C313.12 342.298 313.327 343.739 313.327 345.376ZM307.887 360.292C307.887 361.318 308.575 361.929 309.481 361.929C310.398 361.929 311.074 361.318 311.074 360.292C311.074 359.277 310.398 358.665 309.481 358.665C308.575 358.665 307.887 359.277 307.887 360.292ZM309.481 359.277C309.961 359.277 310.288 359.604 310.288 360.292C310.288 360.968 309.961 361.318 309.481 361.318C309.001 361.318 308.684 360.968 308.684 360.292C308.684 359.604 309.001 359.277 309.481 359.277ZM308.859 366.404H309.841L314.261 358.785H313.279L308.859 366.404ZM312.067 364.897C312.067 365.912 312.744 366.535 313.661 366.535C314.567 366.535 315.244 365.912 315.244 364.897C315.244 363.871 314.567 363.26 313.661 363.26C312.744 363.26 312.067 363.871 312.067 364.897ZM313.65 363.882C314.13 363.882 314.458 364.21 314.458 364.897C314.458 365.574 314.13 365.902 313.65 365.902C313.17 365.902 312.842 365.574 312.842 364.897C312.842 364.21 313.17 363.882 313.65 363.882Z" fill="white"/>
<path opacity="0.5" d="M462.105 349.404H463.109V341.513H461.057V342.418H462.105V349.404ZM464.716 345.376C464.716 347.668 465.284 349.404 467.466 349.404C469.638 349.404 470.206 347.668 470.206 345.376C470.206 343.117 469.638 341.393 467.466 341.393C465.284 341.393 464.716 343.117 464.716 345.376ZM469.224 345.376C469.224 347.079 469.016 348.498 467.466 348.498C465.906 348.498 465.698 347.079 465.698 345.376C465.698 343.739 465.906 342.298 467.466 342.298C469.016 342.298 469.224 343.739 469.224 345.376ZM471.47 345.376C471.47 347.668 472.038 349.404 474.221 349.404C476.393 349.404 476.96 347.668 476.96 345.376C476.96 343.117 476.393 341.393 474.221 341.393C472.038 341.393 471.47 343.117 471.47 345.376ZM475.978 345.376C475.978 347.079 475.77 348.498 474.221 348.498C472.66 348.498 472.452 347.079 472.452 345.376C472.452 343.739 472.66 342.298 474.221 342.298C475.77 342.298 475.978 343.739 475.978 345.376ZM465.462 360.292C465.462 361.318 466.15 361.929 467.056 361.929C467.973 361.929 468.649 361.318 468.649 360.292C468.649 359.277 467.973 358.665 467.056 358.665C466.15 358.665 465.462 359.277 465.462 360.292ZM467.056 359.277C467.536 359.277 467.863 359.604 467.863 360.292C467.863 360.968 467.536 361.318 467.056 361.318C466.576 361.318 466.259 360.968 466.259 360.292C466.259 359.604 466.576 359.277 467.056 359.277ZM466.434 366.404H467.416L471.836 358.785H470.854L466.434 366.404ZM469.642 364.897C469.642 365.912 470.319 366.535 471.236 366.535C472.142 366.535 472.819 365.912 472.819 364.897C472.819 363.871 472.142 363.26 471.236 363.26C470.319 363.26 469.642 363.871 469.642 364.897ZM471.225 363.882C471.705 363.882 472.033 364.21 472.033 364.897C472.033 365.574 471.705 365.902 471.225 365.902C470.745 365.902 470.417 365.574 470.417 364.897C470.417 364.21 470.745 363.882 471.225 363.882Z" fill="white"/>
<g clip-path="url(#clip1_0_136)">
<path d="M355.502 334.25L366.037 312.517H351.966V309.865H368.874V312.996L358.707 334.25H355.502ZM379.463 334.545C377.94 334.545 376.54 334.25 375.263 333.661C374.011 333.047 372.98 332.236 372.169 331.23C371.359 330.223 370.892 329.081 370.769 327.804H373.569C373.692 328.565 374.036 329.253 374.6 329.867C375.165 330.481 375.865 330.972 376.7 331.34C377.56 331.684 378.48 331.856 379.463 331.856C381.206 331.856 382.557 331.414 383.515 330.53C384.497 329.646 384.988 328.577 384.988 327.325C384.988 326.49 384.755 325.729 384.288 325.041C383.846 324.329 383.232 323.764 382.446 323.347C381.661 322.905 380.752 322.684 379.721 322.684H376.921V320.142H379.389C380.249 320.142 381.034 319.982 381.747 319.663C382.483 319.319 383.073 318.853 383.515 318.263C383.957 317.649 384.178 316.95 384.178 316.164C384.178 315.01 383.76 314.076 382.925 313.364C382.115 312.627 380.912 312.259 379.315 312.259C377.817 312.259 376.614 312.603 375.705 313.291C374.821 313.978 374.293 314.788 374.122 315.722H371.433C371.555 314.715 371.924 313.745 372.538 312.812C373.176 311.878 374.06 311.105 375.19 310.491C376.319 309.877 377.67 309.57 379.242 309.57C381.648 309.57 383.527 310.184 384.878 311.412C386.253 312.615 386.94 314.162 386.94 316.053C386.94 316.864 386.744 317.637 386.351 318.374C385.983 319.086 385.516 319.7 384.951 320.216C384.386 320.731 383.822 321.075 383.257 321.247C384.681 321.787 385.786 322.598 386.572 323.678C387.358 324.759 387.751 325.95 387.751 327.251C387.751 328.7 387.382 329.977 386.646 331.082C385.909 332.163 384.914 333.01 383.662 333.624C382.41 334.238 381.01 334.545 379.463 334.545ZM390.236 334.25V330.493H393.809V334.25H390.236ZM407.32 334.25V328.025H395.68V325.336L405.92 309.865H410.083V325.557H413.361V328.025H410.083V334.25H407.32ZM398.259 325.557H407.32V312.222L398.259 325.557Z" fill="white"/>
<path d="M421.643 333.911L429.158 322.745H430.189L422.675 333.911H421.643ZM422.151 328.999C421.387 328.999 420.786 328.737 420.35 328.214C419.913 327.679 419.695 326.909 419.695 325.905C419.695 324.89 419.913 324.121 420.35 323.597C420.786 323.062 421.387 322.795 422.151 322.795C422.74 322.805 423.215 322.958 423.575 323.253C423.935 323.548 424.197 323.93 424.361 324.399C424.524 324.868 424.606 325.37 424.606 325.905C424.606 326.909 424.383 327.679 423.935 328.214C423.499 328.737 422.904 328.999 422.151 328.999ZM422.151 328.066C422.522 328.055 422.811 327.941 423.018 327.722C423.226 327.504 423.373 327.231 423.46 326.904C423.548 326.565 423.591 326.233 423.591 325.905C423.591 325.185 423.46 324.645 423.198 324.284C422.947 323.924 422.598 323.744 422.151 323.744C421.692 323.744 421.332 323.924 421.07 324.284C420.819 324.645 420.694 325.185 420.694 325.905C420.694 326.625 420.819 327.166 421.07 327.526C421.332 327.886 421.692 328.066 422.151 328.066ZM429.698 333.845C428.934 333.845 428.334 333.583 427.897 333.059C427.46 332.525 427.242 331.755 427.242 330.751C427.242 329.736 427.46 328.967 427.897 328.443C428.334 327.908 428.934 327.641 429.698 327.641C430.287 327.651 430.762 327.804 431.122 328.099C431.482 328.394 431.744 328.776 431.908 329.245C432.072 329.714 432.154 330.216 432.154 330.751C432.154 331.755 431.93 332.525 431.482 333.059C431.046 333.583 430.451 333.845 429.698 333.845ZM429.698 332.912C430.069 332.901 430.358 332.787 430.566 332.568C430.773 332.35 430.92 332.077 431.008 331.75C431.095 331.411 431.139 331.079 431.139 330.751C431.139 330.031 431.008 329.49 430.746 329.13C430.495 328.77 430.145 328.59 429.698 328.59C429.239 328.59 428.879 328.77 428.617 329.13C428.366 329.49 428.241 330.031 428.241 330.751C428.241 331.471 428.366 332.012 428.617 332.372C428.879 332.732 429.239 332.912 429.698 332.912Z" fill="white"/>
</g>
</g>
<g filter="url(#filter3_d_0_136)">
<path fill-rule="evenodd" clip-rule="evenodd" d="M239.604 374.604C254.296 374.604 266.207 362.693 266.207 348C266.207 333.307 254.296 321.396 239.604 321.396C224.911 321.396 213 333.307 213 348C213 362.693 224.911 374.604 239.604 374.604Z" fill="white"/>
<path fill-rule="evenodd" clip-rule="evenodd" d="M244.094 347.318H236.475L239.121 344.671C239.387 344.405 239.387 343.969 239.121 343.702C238.855 343.436 238.425 343.436 238.159 343.702L234.346 347.516C234.08 347.782 234.08 348.211 234.346 348.477L238.153 352.297C238.419 352.564 238.848 352.564 239.114 352.297C239.38 352.031 239.38 351.602 239.114 351.336L236.475 348.682H244.094C244.469 348.682 244.776 348.375 244.776 348C244.776 347.625 244.469 347.318 244.094 347.318Z" fill="#141416"/>
</g>
<g filter="url(#filter4_d_0_136)">
<path fill-rule="evenodd" clip-rule="evenodd" d="M543.157 374.604C557.85 374.604 569.761 362.693 569.761 348C569.761 333.307 557.85 321.396 543.157 321.396C528.465 321.396 516.554 333.307 516.554 348C516.554 362.693 528.465 374.604 543.157 374.604Z" fill="white"/>
<path fill-rule="evenodd" clip-rule="evenodd" d="M537.985 348H545.604L542.958 350.647C542.691 350.913 542.691 351.349 542.958 351.615C543.224 351.881 543.653 351.881 543.919 351.615L547.733 347.802C547.999 347.536 547.999 347.106 547.733 346.84L543.926 343.02C543.66 342.754 543.23 342.754 542.964 343.02C542.698 343.286 542.698 343.716 542.964 343.982L545.604 346.636H537.985C537.61 346.636 537.303 346.943 537.303 347.318C537.303 347.693 537.61 348 537.985 348Z" fill="#141416"/>
</g>
<path d="M262.427 188.829V180.7H265.853C266.336 180.7 266.798 180.794 267.24 180.983C267.69 181.163 268.091 181.429 268.443 181.781C268.795 182.133 269.074 182.558 269.278 183.058C269.483 183.557 269.585 184.126 269.585 184.764C269.585 185.403 269.483 185.972 269.278 186.471C269.074 186.97 268.795 187.396 268.443 187.748C268.091 188.1 267.69 188.37 267.24 188.558C266.798 188.739 266.336 188.829 265.853 188.829H262.427ZM263.348 187.957H265.816C266.397 187.957 266.9 187.809 267.326 187.515C267.752 187.22 268.079 186.831 268.308 186.348C268.546 185.865 268.664 185.337 268.664 184.764C268.664 184.183 268.546 183.651 268.308 183.168C268.079 182.685 267.752 182.3 267.326 182.014C266.9 181.719 266.397 181.572 265.816 181.572H263.348V187.957ZM270.69 181.658V180.455H271.685V181.658H270.69ZM270.727 188.829V182.689H271.648V188.829H270.727ZM275.344 188.927C274.779 188.927 274.3 188.833 273.907 188.644C273.522 188.456 273.228 188.211 273.023 187.908C272.818 187.597 272.704 187.261 272.679 186.901H273.637C273.662 187.105 273.731 187.306 273.846 187.502C273.968 187.691 274.153 187.846 274.398 187.969C274.644 188.084 274.963 188.141 275.356 188.141C275.479 188.141 275.63 188.129 275.81 188.104C275.99 188.08 276.162 188.035 276.326 187.969C276.498 187.904 276.641 187.805 276.756 187.674C276.87 187.543 276.928 187.376 276.928 187.171C276.928 186.917 276.829 186.721 276.633 186.582C276.436 186.442 276.183 186.336 275.872 186.262C275.561 186.181 275.229 186.103 274.877 186.029C274.533 185.955 274.206 185.861 273.895 185.747C273.584 185.624 273.33 185.456 273.134 185.243C272.937 185.022 272.839 184.723 272.839 184.347C272.839 183.79 273.039 183.361 273.44 183.058C273.85 182.747 274.451 182.591 275.245 182.591C275.786 182.591 276.224 182.677 276.559 182.849C276.903 183.013 277.161 183.225 277.333 183.487C277.513 183.749 277.619 184.032 277.652 184.335H276.719C276.686 184.073 276.555 183.848 276.326 183.659C276.105 183.471 275.737 183.377 275.221 183.377C274.247 183.377 273.76 183.672 273.76 184.261C273.76 184.507 273.858 184.695 274.054 184.826C274.251 184.957 274.505 185.063 274.816 185.145C275.127 185.219 275.454 185.292 275.798 185.366C276.15 185.432 276.481 185.526 276.793 185.648C277.104 185.771 277.357 185.947 277.554 186.176C277.75 186.397 277.848 186.7 277.848 187.085C277.848 187.683 277.619 188.141 277.161 188.46C276.711 188.771 276.105 188.927 275.344 188.927ZM281.536 188.927C280.922 188.927 280.39 188.788 279.94 188.509C279.489 188.223 279.137 187.838 278.884 187.355C278.638 186.872 278.515 186.34 278.515 185.759C278.515 185.17 278.638 184.637 278.884 184.163C279.137 183.68 279.489 183.299 279.94 183.021C280.39 182.734 280.922 182.591 281.536 182.591C282.264 182.591 282.882 182.779 283.39 183.156C283.906 183.532 284.254 184.019 284.434 184.617H283.439C283.3 184.265 283.075 183.979 282.764 183.758C282.461 183.537 282.093 183.426 281.659 183.426C281.208 183.426 280.816 183.532 280.48 183.745C280.144 183.958 279.886 184.24 279.706 184.592C279.526 184.944 279.436 185.333 279.436 185.759C279.436 186.176 279.526 186.565 279.706 186.925C279.886 187.277 280.144 187.56 280.48 187.773C280.816 187.985 281.208 188.092 281.659 188.092C282.093 188.092 282.461 187.981 282.764 187.76C283.075 187.539 283.3 187.253 283.439 186.901H284.434C284.254 187.498 283.906 187.985 283.39 188.362C282.882 188.739 282.264 188.927 281.536 188.927ZM288.103 188.927C287.481 188.927 286.941 188.788 286.482 188.509C286.024 188.223 285.672 187.838 285.426 187.355C285.181 186.872 285.058 186.34 285.058 185.759C285.058 185.17 285.181 184.637 285.426 184.163C285.672 183.68 286.024 183.299 286.482 183.021C286.941 182.734 287.481 182.591 288.103 182.591C288.733 182.591 289.273 182.734 289.724 183.021C290.182 183.299 290.534 183.68 290.78 184.163C291.025 184.637 291.148 185.17 291.148 185.759C291.148 186.34 291.025 186.872 290.78 187.355C290.534 187.838 290.182 188.223 289.724 188.509C289.273 188.788 288.733 188.927 288.103 188.927ZM288.103 188.092C288.561 188.092 288.946 187.985 289.257 187.773C289.576 187.56 289.818 187.277 289.982 186.925C290.145 186.565 290.227 186.176 290.227 185.759C290.227 185.333 290.145 184.944 289.982 184.592C289.818 184.24 289.576 183.958 289.257 183.745C288.946 183.532 288.561 183.426 288.103 183.426C287.653 183.426 287.268 183.532 286.949 183.745C286.629 183.958 286.388 184.24 286.224 184.592C286.061 184.944 285.979 185.333 285.979 185.759C285.979 186.176 286.061 186.565 286.224 186.925C286.388 187.277 286.629 187.56 286.949 187.773C287.268 187.985 287.653 188.092 288.103 188.092ZM293.783 188.829L291.376 182.689H292.383L294.323 187.846L296.251 182.689H297.257L294.863 188.829H293.783ZM300.59 188.927C299.968 188.927 299.423 188.788 298.957 188.509C298.49 188.223 298.126 187.838 297.864 187.355C297.61 186.872 297.483 186.34 297.483 185.759C297.483 185.17 297.606 184.637 297.852 184.163C298.097 183.68 298.449 183.299 298.908 183.021C299.366 182.734 299.906 182.591 300.528 182.591C301.159 182.591 301.699 182.734 302.149 183.021C302.607 183.299 302.959 183.68 303.205 184.163C303.451 184.637 303.573 185.17 303.573 185.759V186.127H298.429C298.478 186.487 298.592 186.819 298.772 187.122C298.961 187.417 299.21 187.654 299.521 187.834C299.832 188.006 300.193 188.092 300.602 188.092C301.036 188.092 301.4 187.998 301.695 187.809C301.989 187.613 302.219 187.363 302.382 187.06H303.389C303.176 187.609 302.837 188.059 302.37 188.411C301.912 188.755 301.318 188.927 300.59 188.927ZM298.441 185.268H302.616C302.534 184.744 302.313 184.306 301.953 183.954C301.592 183.602 301.118 183.426 300.528 183.426C299.939 183.426 299.464 183.602 299.104 183.954C298.752 184.306 298.531 184.744 298.441 185.268ZM304.562 188.829V182.689H305.483V184.2C305.516 184.093 305.577 183.954 305.667 183.782C305.765 183.602 305.905 183.422 306.085 183.242C306.265 183.062 306.49 182.91 306.76 182.788C307.038 182.657 307.366 182.591 307.742 182.591H307.804V183.512H307.693C307.235 183.512 306.838 183.639 306.502 183.893C306.175 184.138 305.921 184.462 305.741 184.863C305.569 185.256 305.483 185.677 305.483 186.127V188.829H304.562ZM311.136 188.829V182.689H312.057V183.647C312.278 183.352 312.548 183.103 312.867 182.898C313.187 182.693 313.596 182.591 314.095 182.591C314.521 182.591 314.918 182.693 315.286 182.898C315.663 183.094 315.966 183.393 316.195 183.794C316.432 184.187 316.551 184.674 316.551 185.256V188.829H315.63V185.28C315.63 184.723 315.47 184.277 315.151 183.942C314.832 183.598 314.419 183.426 313.911 183.426C313.567 183.426 313.256 183.504 312.978 183.659C312.7 183.815 312.474 184.036 312.302 184.322C312.139 184.601 312.057 184.924 312.057 185.292V188.829H311.136ZM320.68 188.927C320.058 188.927 319.514 188.788 319.047 188.509C318.58 188.223 318.216 187.838 317.954 187.355C317.701 186.872 317.574 186.34 317.574 185.759C317.574 185.17 317.696 184.637 317.942 184.163C318.188 183.68 318.54 183.299 318.998 183.021C319.456 182.734 319.997 182.591 320.619 182.591C321.249 182.591 321.789 182.734 322.239 183.021C322.698 183.299 323.05 183.68 323.295 184.163C323.541 184.637 323.664 185.17 323.664 185.759V186.127H318.519C318.568 186.487 318.683 186.819 318.863 187.122C319.051 187.417 319.301 187.654 319.612 187.834C319.923 188.006 320.283 188.092 320.692 188.092C321.126 188.092 321.49 187.998 321.785 187.809C322.08 187.613 322.309 187.363 322.473 187.06H323.48C323.267 187.609 322.927 188.059 322.461 188.411C322.002 188.755 321.409 188.927 320.68 188.927ZM318.531 185.268H322.706C322.624 184.744 322.403 184.306 322.043 183.954C321.683 183.602 321.208 183.426 320.619 183.426C320.029 183.426 319.555 183.602 319.194 183.954C318.842 184.306 318.621 184.744 318.531 185.268ZM325.844 188.829L323.916 182.689H324.898L326.372 187.687L327.931 182.689H328.938L330.497 187.687L331.971 182.689H332.953L331.025 188.829H329.969L328.434 183.929L326.9 188.829H325.844ZM338.819 188.927C338.197 188.927 337.657 188.788 337.198 188.509C336.74 188.223 336.388 187.838 336.142 187.355C335.897 186.872 335.774 186.34 335.774 185.759C335.774 185.17 335.897 184.637 336.142 184.163C336.388 183.68 336.74 183.299 337.198 183.021C337.657 182.734 338.197 182.591 338.819 182.591C339.449 182.591 339.99 182.734 340.44 183.021C340.898 183.299 341.25 183.68 341.496 184.163C341.741 184.637 341.864 185.17 341.864 185.759C341.864 186.34 341.741 186.872 341.496 187.355C341.25 187.838 340.898 188.223 340.44 188.509C339.99 188.788 339.449 188.927 338.819 188.927ZM338.819 188.092C339.278 188.092 339.662 187.985 339.973 187.773C340.293 187.56 340.534 187.277 340.698 186.925C340.861 186.565 340.943 186.176 340.943 185.759C340.943 185.333 340.861 184.944 340.698 184.592C340.534 184.24 340.293 183.958 339.973 183.745C339.662 183.532 339.278 183.426 338.819 183.426C338.369 183.426 337.984 183.532 337.665 183.745C337.346 183.958 337.104 184.24 336.941 184.592C336.777 184.944 336.695 185.333 336.695 185.759C336.695 186.176 336.777 186.565 336.941 186.925C337.104 187.277 337.346 187.56 337.665 187.773C337.984 187.985 338.369 188.092 338.819 188.092ZM342.949 191.26V182.689H343.87V183.672C344.099 183.336 344.394 183.074 344.754 182.886C345.122 182.689 345.56 182.591 346.068 182.591C346.665 182.591 347.185 182.734 347.627 183.021C348.077 183.299 348.425 183.68 348.671 184.163C348.916 184.637 349.039 185.17 349.039 185.759C349.039 186.34 348.916 186.872 348.671 187.355C348.425 187.838 348.077 188.223 347.627 188.509C347.185 188.788 346.665 188.927 346.068 188.927C345.56 188.927 345.122 188.829 344.754 188.632C344.394 188.427 344.099 188.161 343.87 187.834V191.26H342.949ZM345.945 188.092C346.403 188.092 346.792 187.985 347.111 187.773C347.439 187.56 347.688 187.277 347.86 186.925C348.032 186.565 348.118 186.176 348.118 185.759C348.118 185.333 348.032 184.944 347.86 184.592C347.688 184.24 347.439 183.958 347.111 183.745C346.792 183.532 346.403 183.426 345.945 183.426C345.495 183.426 345.11 183.532 344.791 183.745C344.471 183.958 344.23 184.24 344.066 184.592C343.903 184.944 343.821 185.333 343.821 185.759C343.821 186.176 343.903 186.565 344.066 186.925C344.23 187.277 344.471 187.56 344.791 187.773C345.11 187.985 345.495 188.092 345.945 188.092ZM350.115 191.26V182.689H351.036V183.672C351.265 183.336 351.56 183.074 351.92 182.886C352.288 182.689 352.726 182.591 353.234 182.591C353.831 182.591 354.351 182.734 354.793 183.021C355.243 183.299 355.591 183.68 355.837 184.163C356.082 184.637 356.205 185.17 356.205 185.759C356.205 186.34 356.082 186.872 355.837 187.355C355.591 187.838 355.243 188.223 354.793 188.509C354.351 188.788 353.831 188.927 353.234 188.927C352.726 188.927 352.288 188.829 351.92 188.632C351.56 188.427 351.265 188.161 351.036 187.834V191.26H350.115ZM353.111 188.092C353.569 188.092 353.958 187.985 354.277 187.773C354.605 187.56 354.854 187.277 355.026 186.925C355.198 186.565 355.284 186.176 355.284 185.759C355.284 185.333 355.198 184.944 355.026 184.592C354.854 184.24 354.605 183.958 354.277 183.745C353.958 183.532 353.569 183.426 353.111 183.426C352.661 183.426 352.276 183.532 351.957 183.745C351.637 183.958 351.396 184.24 351.232 184.592C351.069 184.944 350.987 185.333 350.987 185.759C350.987 186.176 351.069 186.565 351.232 186.925C351.396 187.277 351.637 187.56 351.957 187.773C352.276 187.985 352.661 188.092 353.111 188.092ZM359.945 188.927C359.323 188.927 358.783 188.788 358.325 188.509C357.866 188.223 357.514 187.838 357.269 187.355C357.023 186.872 356.9 186.34 356.9 185.759C356.9 185.17 357.023 184.637 357.269 184.163C357.514 183.68 357.866 183.299 358.325 183.021C358.783 182.734 359.323 182.591 359.945 182.591C360.576 182.591 361.116 182.734 361.566 183.021C362.024 183.299 362.376 183.68 362.622 184.163C362.868 184.637 362.99 185.17 362.99 185.759C362.99 186.34 362.868 186.872 362.622 187.355C362.376 187.838 362.024 188.223 361.566 188.509C361.116 188.788 360.576 188.927 359.945 188.927ZM359.945 188.092C360.404 188.092 360.788 187.985 361.1 187.773C361.419 187.56 361.66 187.277 361.824 186.925C361.988 186.565 362.07 186.176 362.07 185.759C362.07 185.333 361.988 184.944 361.824 184.592C361.66 184.24 361.419 183.958 361.1 183.745C360.788 183.532 360.404 183.426 359.945 183.426C359.495 183.426 359.11 183.532 358.791 183.745C358.472 183.958 358.23 184.24 358.067 184.592C357.903 184.944 357.821 185.333 357.821 185.759C357.821 186.176 357.903 186.565 358.067 186.925C358.23 187.277 358.472 187.56 358.791 187.773C359.11 187.985 359.495 188.092 359.945 188.092ZM364.075 188.829V182.689H364.996V184.2C365.029 184.093 365.09 183.954 365.18 183.782C365.278 183.602 365.418 183.422 365.598 183.242C365.778 183.062 366.003 182.91 366.273 182.788C366.551 182.657 366.879 182.591 367.255 182.591H367.317V183.512H367.206C366.748 183.512 366.351 183.639 366.015 183.893C365.688 184.138 365.434 184.462 365.254 184.863C365.082 185.256 364.996 185.677 364.996 186.127V188.829H364.075ZM368.834 188.829V183.5H367.582V182.689H368.834V180.491H369.755V182.689H371.167V183.5H369.755V188.829H368.834ZM374.434 188.927C374.017 188.927 373.62 188.829 373.243 188.632C372.867 188.427 372.56 188.129 372.322 187.736C372.093 187.335 371.979 186.844 371.979 186.262V182.689H372.899V186.238C372.899 186.794 373.059 187.245 373.378 187.588C373.706 187.924 374.119 188.092 374.618 188.092C374.962 188.092 375.273 188.014 375.552 187.859C375.83 187.695 376.051 187.474 376.215 187.196C376.387 186.917 376.472 186.594 376.472 186.226V182.689H377.393V188.829H376.472V187.871C376.251 188.166 375.981 188.415 375.662 188.62C375.343 188.824 374.934 188.927 374.434 188.927ZM378.858 188.829V182.689H379.779V183.647C380 183.352 380.27 183.103 380.589 182.898C380.909 182.693 381.318 182.591 381.817 182.591C382.243 182.591 382.64 182.693 383.008 182.898C383.385 183.094 383.688 183.393 383.917 183.794C384.154 184.187 384.273 184.674 384.273 185.256V188.829H383.352V185.28C383.352 184.723 383.193 184.277 382.873 183.942C382.554 183.598 382.141 183.426 381.633 183.426C381.289 183.426 380.978 183.504 380.7 183.659C380.422 183.815 380.197 184.036 380.025 184.322C379.861 184.601 379.779 184.924 379.779 185.292V188.829H378.858ZM385.64 181.658V180.455H386.634V181.658H385.64ZM385.676 188.829V182.689H386.597V188.829H385.676ZM388.721 188.829V183.5H387.469V182.689H388.721V180.491H389.642V182.689H391.054V183.5H389.642V188.829H388.721ZM391.89 181.658V180.455H392.884V181.658H391.89ZM391.927 188.829V182.689H392.847V188.829H391.927ZM397.034 188.927C396.412 188.927 395.868 188.788 395.401 188.509C394.934 188.223 394.57 187.838 394.308 187.355C394.054 186.872 393.928 186.34 393.928 185.759C393.928 185.17 394.05 184.637 394.296 184.163C394.541 183.68 394.893 183.299 395.352 183.021C395.81 182.734 396.35 182.591 396.973 182.591C397.603 182.591 398.143 182.734 398.593 183.021C399.052 183.299 399.404 183.68 399.649 184.163C399.895 184.637 400.018 185.17 400.018 185.759V186.127H394.873C394.922 186.487 395.037 186.819 395.217 187.122C395.405 187.417 395.655 187.654 395.966 187.834C396.277 188.006 396.637 188.092 397.046 188.092C397.48 188.092 397.844 187.998 398.139 187.809C398.434 187.613 398.663 187.363 398.827 187.06H399.834C399.621 187.609 399.281 188.059 398.814 188.411C398.356 188.755 397.763 188.927 397.034 188.927ZM394.885 185.268H399.06C398.978 184.744 398.757 184.306 398.397 183.954C398.037 183.602 397.562 183.426 396.973 183.426C396.383 183.426 395.908 183.602 395.548 183.954C395.196 184.306 394.975 184.744 394.885 185.268ZM403.241 188.927C402.676 188.927 402.198 188.833 401.805 188.644C401.42 188.456 401.125 188.211 400.921 187.908C400.716 187.597 400.601 187.261 400.577 186.901H401.534C401.559 187.105 401.629 187.306 401.743 187.502C401.866 187.691 402.05 187.846 402.296 187.969C402.541 188.084 402.861 188.141 403.253 188.141C403.376 188.141 403.528 188.129 403.708 188.104C403.888 188.08 404.06 188.035 404.223 187.969C404.395 187.904 404.539 187.805 404.653 187.674C404.768 187.543 404.825 187.376 404.825 187.171C404.825 186.917 404.727 186.721 404.53 186.582C404.334 186.442 404.08 186.336 403.769 186.262C403.458 186.181 403.127 186.103 402.775 186.029C402.431 185.955 402.103 185.861 401.792 185.747C401.481 185.624 401.227 185.456 401.031 185.243C400.835 185.022 400.736 184.723 400.736 184.347C400.736 183.79 400.937 183.361 401.338 183.058C401.747 182.747 402.349 182.591 403.143 182.591C403.683 182.591 404.121 182.677 404.457 182.849C404.801 183.013 405.058 183.225 405.23 183.487C405.41 183.749 405.517 184.032 405.55 184.335H404.616C404.584 184.073 404.453 183.848 404.223 183.659C404.002 183.471 403.634 183.377 403.118 183.377C402.144 183.377 401.657 183.672 401.657 184.261C401.657 184.507 401.755 184.695 401.952 184.826C402.148 184.957 402.402 185.063 402.713 185.145C403.024 185.219 403.352 185.292 403.695 185.366C404.047 185.432 404.379 185.526 404.69 185.648C405.001 185.771 405.255 185.947 405.451 186.176C405.648 186.397 405.746 186.7 405.746 187.085C405.746 187.683 405.517 188.141 405.058 188.46C404.608 188.771 404.002 188.927 403.241 188.927Z" fill="white"/>
<path fill-rule="evenodd" clip-rule="evenodd" d="M513.143 195.2C508.622 195.2 504.957 191.535 504.957 187.014C504.957 182.493 508.622 178.829 513.143 178.829C517.664 178.829 521.329 182.493 521.329 187.014C521.329 191.535 517.664 195.2 513.143 195.2ZM513.143 193.836C516.91 193.836 519.965 190.782 519.965 187.014C519.965 183.247 516.91 180.193 513.143 180.193C509.376 180.193 506.322 183.247 506.322 187.014C506.322 190.782 509.376 193.836 513.143 193.836ZM513.143 191.789C512.727 191.789 512.39 191.433 512.39 190.993C512.39 190.554 512.727 190.198 513.143 190.198C513.559 190.198 513.896 190.554 513.896 190.993C513.896 191.433 513.559 191.789 513.143 191.789ZM513.143 189.402C512.727 189.402 512.353 189.047 512.306 188.608L511.787 183.671C511.704 182.88 512.246 182.239 513.002 182.239H513.284C514.038 182.239 514.583 182.875 514.499 183.671L513.98 188.608C513.934 189.046 513.562 189.402 513.143 189.402Z" fill="white"/>
<g clip-path="url(#clip2_0_136)">
<path d="M454.479 477.03H455.56V478.307C456.356 478.383 457.011 478.574 457.524 478.88C458.037 479.174 458.425 479.54 458.687 479.977C458.949 480.413 459.096 480.877 459.129 481.368H457.868C457.814 480.899 457.601 480.49 457.23 480.14C456.859 479.78 456.302 479.556 455.56 479.469V483.251C456.04 483.36 456.504 483.491 456.951 483.644C457.41 483.797 457.824 483.982 458.196 484.2C458.567 484.419 458.861 484.697 459.08 485.035C459.298 485.363 459.407 485.767 459.407 486.247C459.407 487.196 459.063 487.939 458.376 488.473C457.699 489.008 456.76 489.303 455.56 489.357V490.667H454.479V489.357C453.562 489.292 452.815 489.112 452.236 488.817C451.658 488.512 451.227 488.119 450.943 487.638C450.659 487.147 450.49 486.602 450.435 486.001H451.712C451.745 486.689 452.023 487.207 452.547 487.557C453.071 487.895 453.715 488.102 454.479 488.179V484.184C454.01 484.064 453.551 483.933 453.104 483.791C452.667 483.649 452.269 483.469 451.909 483.251C451.56 483.033 451.281 482.765 451.074 482.449C450.867 482.132 450.763 481.739 450.763 481.27C450.763 480.43 451.068 479.736 451.68 479.191C452.302 478.634 453.235 478.329 454.479 478.274V477.03ZM451.958 481.254C451.958 481.581 452.073 481.854 452.302 482.072C452.531 482.279 452.837 482.454 453.219 482.596C453.601 482.738 454.021 482.869 454.479 482.989V479.436C453.77 479.469 453.235 479.589 452.875 479.796C452.515 480.004 452.269 480.244 452.138 480.517C452.018 480.779 451.958 481.024 451.958 481.254ZM458.179 486.296C458.179 485.947 458.059 485.657 457.819 485.428C457.579 485.199 457.262 485.008 456.869 484.855C456.477 484.702 456.04 484.566 455.56 484.446V488.195C456.367 488.162 457.006 487.988 457.475 487.671C457.944 487.355 458.179 486.896 458.179 486.296ZM468.468 489.243V486.476H463.295V485.281L467.846 478.405H469.696V485.379H471.153V486.476H469.696V489.243H468.468ZM464.441 485.379H468.468V479.453L464.441 485.379ZM471.627 491.06L472.577 487.573H474.181L472.74 491.06H471.627ZM478.894 489.374C478.207 489.374 477.634 489.243 477.175 488.981C476.717 488.719 476.357 488.386 476.095 487.982C475.844 487.567 475.669 487.147 475.571 486.722H476.946C477.023 486.951 477.132 487.18 477.274 487.409C477.426 487.627 477.634 487.813 477.896 487.966C478.158 488.108 478.49 488.179 478.894 488.179C479.571 488.179 480.117 487.982 480.531 487.589C480.957 487.196 481.268 486.667 481.465 486.001C481.672 485.335 481.776 484.593 481.776 483.775C481.514 484.222 481.126 484.593 480.613 484.888C480.111 485.172 479.555 485.314 478.943 485.314C478.267 485.314 477.645 485.166 477.077 484.872C476.52 484.566 476.078 484.151 475.751 483.627C475.424 483.093 475.26 482.481 475.26 481.794C475.26 481.117 475.429 480.517 475.767 479.993C476.106 479.458 476.559 479.038 477.126 478.732C477.694 478.427 478.316 478.274 478.993 478.274C480.313 478.274 481.312 478.754 481.989 479.715C482.665 480.675 483.004 482.045 483.004 483.824C483.004 485.537 482.66 486.891 481.972 487.884C481.285 488.877 480.259 489.374 478.894 489.374ZM478.993 484.151C479.451 484.151 479.871 484.059 480.253 483.873C480.635 483.677 480.935 483.409 481.154 483.071C481.383 482.722 481.497 482.323 481.497 481.876C481.497 481.395 481.383 480.975 481.154 480.615C480.935 480.255 480.635 479.977 480.253 479.78C479.882 479.573 479.462 479.469 478.993 479.469C478.534 479.469 478.114 479.567 477.732 479.764C477.361 479.96 477.061 480.233 476.832 480.582C476.602 480.932 476.488 481.335 476.488 481.794C476.488 482.241 476.602 482.645 476.832 483.005C477.061 483.355 477.361 483.633 477.732 483.84C478.114 484.048 478.534 484.151 478.993 484.151ZM487.865 489.374C486.632 489.374 485.677 489.074 485 488.473C484.324 487.873 483.985 487.093 483.985 486.132C483.985 485.51 484.171 484.943 484.542 484.43C484.924 483.906 485.431 483.524 486.065 483.284C485.824 483.196 485.573 483.06 485.311 482.874C485.06 482.678 484.848 482.427 484.673 482.121C484.498 481.805 484.411 481.434 484.411 481.008C484.411 480.2 484.706 479.545 485.295 479.043C485.895 478.53 486.752 478.274 487.865 478.274C488.979 478.274 489.83 478.53 490.419 479.043C491.02 479.545 491.32 480.2 491.32 481.008C491.32 481.434 491.232 481.805 491.058 482.121C490.883 482.427 490.665 482.678 490.403 482.874C490.152 483.06 489.906 483.196 489.666 483.284C490.31 483.524 490.818 483.906 491.189 484.43C491.56 484.943 491.745 485.51 491.745 486.132C491.745 487.093 491.407 487.873 490.73 488.473C490.054 489.074 489.099 489.374 487.865 489.374ZM487.865 482.76C488.204 482.76 488.542 482.705 488.88 482.596C489.23 482.476 489.519 482.29 489.748 482.039C489.977 481.788 490.092 481.466 490.092 481.073C490.092 480.56 489.885 480.162 489.47 479.878C489.055 479.595 488.52 479.453 487.865 479.453C487.211 479.453 486.676 479.595 486.261 479.878C485.846 480.162 485.639 480.56 485.639 481.073C485.639 481.466 485.753 481.788 485.983 482.039C486.212 482.29 486.496 482.476 486.834 482.596C487.183 482.705 487.527 482.76 487.865 482.76ZM487.865 488.195C488.673 488.195 489.317 488.009 489.797 487.638C490.277 487.256 490.518 486.749 490.518 486.116C490.518 485.647 490.397 485.248 490.157 484.921C489.917 484.582 489.595 484.326 489.191 484.151C488.799 483.977 488.357 483.889 487.865 483.889C487.385 483.889 486.943 483.977 486.539 484.151C486.135 484.326 485.813 484.582 485.573 484.921C485.333 485.248 485.213 485.647 485.213 486.116C485.213 486.749 485.453 487.256 485.934 487.638C486.414 488.009 487.058 488.195 487.865 488.195ZM492.875 489.243V488.572C492.875 488.037 493.022 487.551 493.317 487.115C493.611 486.667 493.988 486.252 494.446 485.87C494.905 485.488 495.396 485.123 495.92 484.773C496.444 484.413 496.935 484.064 497.393 483.726C497.851 483.387 498.228 483.038 498.523 482.678C498.817 482.307 498.965 481.914 498.965 481.499C498.965 480.866 498.752 480.369 498.326 480.009C497.912 479.649 497.311 479.469 496.525 479.469C495.805 479.469 495.216 479.633 494.757 479.96C494.31 480.277 494.042 480.741 493.955 481.352H492.727C492.793 480.73 492.995 480.189 493.333 479.731C493.682 479.262 494.13 478.902 494.675 478.65C495.221 478.399 495.827 478.274 496.493 478.274C497.278 478.274 497.944 478.416 498.49 478.7C499.047 478.983 499.467 479.365 499.751 479.846C500.045 480.326 500.193 480.866 500.193 481.466C500.193 481.968 500.056 482.438 499.783 482.874C499.51 483.311 499.156 483.72 498.719 484.102C498.283 484.484 497.819 484.844 497.328 485.183C496.847 485.521 496.384 485.854 495.936 486.181C495.489 486.498 495.117 486.814 494.823 487.131C494.528 487.436 494.364 487.748 494.332 488.064H500.16V489.243H492.875ZM501.551 489.243V487.573H503.139V489.243H501.551ZM508.17 489.374C506.893 489.374 505.938 488.904 505.305 487.966C504.683 487.016 504.372 485.636 504.372 483.824C504.372 482.012 504.683 480.637 505.305 479.698C505.938 478.749 506.893 478.274 508.17 478.274C508.912 478.285 509.529 478.449 510.02 478.765C510.511 479.071 510.898 479.485 511.182 480.009C511.466 480.533 511.668 481.123 511.788 481.777C511.908 482.432 511.968 483.114 511.968 483.824C511.968 485.636 511.651 487.016 511.018 487.966C510.396 488.904 509.447 489.374 508.17 489.374ZM508.17 488.179C508.726 488.168 509.174 488.031 509.512 487.769C509.851 487.507 510.107 487.164 510.282 486.738C510.467 486.312 510.587 485.848 510.642 485.346C510.707 484.833 510.74 484.326 510.74 483.824C510.74 482.372 510.538 481.286 510.134 480.566C509.731 479.835 509.076 479.469 508.17 479.469C507.275 479.469 506.62 479.835 506.205 480.566C505.801 481.286 505.599 482.372 505.599 483.824C505.599 485.275 505.801 486.367 506.205 487.098C506.62 487.818 507.275 488.179 508.17 488.179ZM516.83 489.374C515.553 489.374 514.598 488.904 513.965 487.966C513.343 487.016 513.032 485.636 513.032 483.824C513.032 482.012 513.343 480.637 513.965 479.698C514.598 478.749 515.553 478.274 516.83 478.274C517.572 478.285 518.189 478.449 518.68 478.765C519.171 479.071 519.558 479.485 519.842 480.009C520.126 480.533 520.328 481.123 520.448 481.777C520.568 482.432 520.628 483.114 520.628 483.824C520.628 485.636 520.311 487.016 519.678 487.966C519.056 488.904 518.107 489.374 516.83 489.374ZM516.83 488.179C517.386 488.168 517.834 488.031 518.172 487.769C518.511 487.507 518.767 487.164 518.942 486.738C519.127 486.312 519.247 485.848 519.302 485.346C519.367 484.833 519.4 484.326 519.4 483.824C519.4 482.372 519.198 481.286 518.794 480.566C518.391 479.835 517.736 479.469 516.83 479.469C515.935 479.469 515.28 479.835 514.865 480.566C514.461 481.286 514.259 482.372 514.259 483.824C514.259 485.275 514.461 486.367 514.865 487.098C515.28 487.818 515.935 488.179 516.83 488.179Z" fill="white"/>
<path d="M264.952 489.243L261.58 478.405H262.873L265.656 487.507L268.57 478.405H269.978L272.892 487.507L275.675 478.405H276.969L273.596 489.243H272.205L269.274 480.14L266.344 489.243H264.952ZM280.75 489.374C279.953 489.374 279.255 489.188 278.655 488.817C278.065 488.435 277.607 487.922 277.279 487.278C276.952 486.634 276.788 485.925 276.788 485.15C276.788 484.364 276.952 483.655 277.279 483.022C277.607 482.378 278.065 481.87 278.655 481.499C279.255 481.117 279.953 480.926 280.75 480.926C281.427 480.926 282.005 481.057 282.485 481.319C282.977 481.581 283.375 481.936 283.681 482.383V481.057H284.908V489.243H283.681V487.933C283.375 488.37 282.977 488.719 282.485 488.981C282.005 489.243 281.427 489.374 280.75 489.374ZM280.914 488.261C281.525 488.261 282.038 488.119 282.453 487.835C282.878 487.551 283.2 487.175 283.419 486.705C283.637 486.225 283.746 485.707 283.746 485.15C283.746 484.582 283.637 484.064 283.419 483.595C283.2 483.125 282.878 482.749 282.453 482.465C282.038 482.181 281.525 482.039 280.914 482.039C280.314 482.039 279.795 482.181 279.359 482.465C278.922 482.749 278.589 483.125 278.36 483.595C278.131 484.064 278.016 484.582 278.016 485.15C278.016 485.707 278.131 486.225 278.36 486.705C278.589 487.175 278.922 487.551 279.359 487.835C279.795 488.119 280.314 488.261 280.914 488.261ZM286.691 489.243V477.783H287.919V489.243H286.691ZM289.708 489.243V477.783H290.935V489.243H289.708ZM296.358 489.374C295.529 489.374 294.803 489.188 294.181 488.817C293.559 488.435 293.073 487.922 292.724 487.278C292.386 486.634 292.216 485.925 292.216 485.15C292.216 484.364 292.38 483.655 292.708 483.022C293.035 482.378 293.504 481.87 294.115 481.499C294.727 481.117 295.447 480.926 296.276 480.926C297.117 480.926 297.837 481.117 298.438 481.499C299.049 481.87 299.518 482.378 299.845 483.022C300.173 483.655 300.337 484.364 300.337 485.15V485.641H293.477C293.542 486.121 293.695 486.563 293.935 486.967C294.186 487.36 294.519 487.677 294.934 487.917C295.349 488.146 295.829 488.261 296.375 488.261C296.953 488.261 297.439 488.135 297.832 487.884C298.225 487.622 298.53 487.289 298.749 486.885H300.091C299.807 487.617 299.354 488.217 298.732 488.686C298.121 489.145 297.33 489.374 296.358 489.374ZM293.493 484.495H299.06C298.95 483.797 298.656 483.213 298.176 482.743C297.695 482.274 297.062 482.039 296.276 482.039C295.491 482.039 294.858 482.274 294.377 482.743C293.908 483.213 293.613 483.797 293.493 484.495ZM302.38 489.243V482.138H300.71V481.057H302.38V478.127H303.608V481.057H305.49V482.138H303.608V489.243H302.38ZM309.901 489.243V478.405H314.763C315.614 478.405 316.286 478.552 316.777 478.847C317.279 479.142 317.639 479.513 317.857 479.96C318.076 480.397 318.185 480.833 318.185 481.27C318.185 481.968 318.037 482.509 317.743 482.891C317.448 483.262 317.11 483.535 316.728 483.709C317.033 483.808 317.339 483.966 317.645 484.184C317.961 484.391 318.223 484.675 318.43 485.035C318.638 485.396 318.741 485.849 318.741 486.394C318.741 487.202 318.43 487.879 317.808 488.424C317.197 488.97 316.275 489.243 315.041 489.243H309.901ZM311.129 483.251H314.763C315.145 483.251 315.5 483.185 315.827 483.054C316.166 482.923 316.438 482.722 316.646 482.449C316.853 482.165 316.957 481.805 316.957 481.368C316.957 481.063 316.886 480.773 316.744 480.501C316.613 480.228 316.395 480.004 316.089 479.829C315.795 479.655 315.396 479.567 314.894 479.567H311.129V483.251ZM311.129 488.08H315.172C315.915 488.08 316.488 487.928 316.891 487.622C317.306 487.306 317.514 486.864 317.514 486.296C317.514 485.783 317.317 485.336 316.924 484.954C316.531 484.561 315.904 484.364 315.041 484.364H311.129V488.08ZM323.592 489.374C322.795 489.374 322.097 489.188 321.496 488.817C320.907 488.435 320.449 487.922 320.121 487.278C319.794 486.634 319.63 485.925 319.63 485.15C319.63 484.364 319.794 483.655 320.121 483.022C320.449 482.378 320.907 481.87 321.496 481.499C322.097 481.117 322.795 480.926 323.592 480.926C324.269 480.926 324.847 481.057 325.327 481.319C325.818 481.581 326.217 481.936 326.522 482.383V481.057H327.75V489.243H326.522V487.933C326.217 488.37 325.818 488.719 325.327 488.981C324.847 489.243 324.269 489.374 323.592 489.374ZM323.756 488.261C324.367 488.261 324.88 488.119 325.295 487.835C325.72 487.551 326.042 487.175 326.26 486.705C326.479 486.225 326.588 485.707 326.588 485.15C326.588 484.582 326.479 484.064 326.26 483.595C326.042 483.125 325.72 482.749 325.295 482.465C324.88 482.181 324.367 482.039 323.756 482.039C323.155 482.039 322.637 482.181 322.2 482.465C321.764 482.749 321.431 483.125 321.202 483.595C320.972 484.064 320.858 484.582 320.858 485.15C320.858 485.707 320.972 486.225 321.202 486.705C321.431 487.175 321.764 487.551 322.2 487.835C322.637 488.119 323.155 488.261 323.756 488.261ZM329.533 489.243V477.783H330.761V489.243H329.533ZM336.004 489.374C335.207 489.374 334.508 489.188 333.908 488.817C333.319 488.435 332.86 487.922 332.533 487.278C332.206 486.634 332.042 485.925 332.042 485.15C332.042 484.364 332.206 483.655 332.533 483.022C332.86 482.378 333.319 481.87 333.908 481.499C334.508 481.117 335.207 480.926 336.004 480.926C336.68 480.926 337.259 481.057 337.739 481.319C338.23 481.581 338.629 481.936 338.934 482.383V481.057H340.162V489.243H338.934V487.933C338.629 488.37 338.23 488.719 337.739 488.981C337.259 489.243 336.68 489.374 336.004 489.374ZM336.167 488.261C336.779 488.261 337.292 488.119 337.706 487.835C338.132 487.551 338.454 487.175 338.672 486.705C338.891 486.225 339 485.707 339 485.15C339 484.582 338.891 484.064 338.672 483.595C338.454 483.125 338.132 482.749 337.706 482.465C337.292 482.181 336.779 482.039 336.167 482.039C335.567 482.039 335.049 482.181 334.612 482.465C334.176 482.749 333.843 483.125 333.613 483.595C333.384 484.064 333.27 484.582 333.27 485.15C333.27 485.707 333.384 486.225 333.613 486.705C333.843 487.175 334.176 487.551 334.612 487.835C335.049 488.119 335.567 488.261 336.167 488.261ZM341.945 489.243V481.057H343.173V482.334C343.467 481.941 343.827 481.608 344.253 481.335C344.679 481.063 345.225 480.926 345.89 480.926C346.458 480.926 346.987 481.063 347.478 481.335C347.98 481.597 348.384 481.996 348.69 482.531C349.006 483.054 349.165 483.704 349.165 484.479V489.243H347.937V484.512C347.937 483.769 347.724 483.175 347.298 482.727C346.873 482.269 346.321 482.039 345.645 482.039C345.186 482.039 344.772 482.143 344.4 482.35C344.029 482.558 343.729 482.853 343.5 483.235C343.282 483.606 343.173 484.037 343.173 484.528V489.243H341.945ZM354.396 489.374C353.578 489.374 352.868 489.188 352.268 488.817C351.668 488.435 351.199 487.922 350.86 487.278C350.533 486.634 350.369 485.925 350.369 485.15C350.369 484.364 350.533 483.655 350.86 483.022C351.199 482.378 351.668 481.87 352.268 481.499C352.868 481.117 353.578 480.926 354.396 480.926C355.368 480.926 356.192 481.177 356.869 481.679C357.556 482.181 358.02 482.831 358.26 483.627H356.934C356.748 483.158 356.448 482.776 356.034 482.481C355.63 482.187 355.139 482.039 354.56 482.039C353.96 482.039 353.436 482.181 352.988 482.465C352.541 482.749 352.197 483.125 351.957 483.595C351.717 484.064 351.597 484.582 351.597 485.15C351.597 485.707 351.717 486.225 351.957 486.705C352.197 487.175 352.541 487.551 352.988 487.835C353.436 488.119 353.96 488.261 354.56 488.261C355.139 488.261 355.63 488.113 356.034 487.819C356.448 487.524 356.748 487.142 356.934 486.673H358.26C358.02 487.469 357.556 488.119 356.869 488.621C356.192 489.123 355.368 489.374 354.396 489.374ZM363.075 489.374C362.246 489.374 361.52 489.188 360.898 488.817C360.276 488.435 359.79 487.922 359.441 487.278C359.102 486.634 358.933 485.925 358.933 485.15C358.933 484.364 359.097 483.655 359.424 483.022C359.752 482.378 360.221 481.87 360.832 481.499C361.443 481.117 362.164 480.926 362.993 480.926C363.834 480.926 364.554 481.117 365.154 481.499C365.765 481.87 366.235 482.378 366.562 483.022C366.89 483.655 367.053 484.364 367.053 485.15V485.641H360.194C360.259 486.121 360.412 486.563 360.652 486.967C360.903 487.36 361.236 487.677 361.651 487.917C362.066 488.146 362.546 488.261 363.091 488.261C363.67 488.261 364.156 488.135 364.549 487.884C364.941 487.622 365.247 487.289 365.465 486.885H366.808C366.524 487.617 366.071 488.217 365.449 488.686C364.838 489.145 364.046 489.374 363.075 489.374ZM360.21 484.495H365.776C365.667 483.797 365.373 483.213 364.892 482.743C364.412 482.274 363.779 482.039 362.993 482.039C362.207 482.039 361.574 482.274 361.094 482.743C360.625 483.213 360.33 483.797 360.21 484.495Z" fill="white"/>
<path d="M491.535 510.482V508.266H489.44V507.557H491.535V505.341H492.244V507.557H494.351V508.266H492.244V510.482H491.535ZM497.818 502.34H498.539V503.191C499.07 503.242 499.506 503.37 499.848 503.573C500.19 503.77 500.449 504.014 500.623 504.305C500.798 504.596 500.896 504.905 500.918 505.232H500.078C500.041 504.919 499.899 504.647 499.652 504.414C499.405 504.174 499.033 504.024 498.539 503.966V506.487C498.859 506.56 499.168 506.648 499.466 506.749C499.772 506.851 500.048 506.975 500.296 507.12C500.543 507.266 500.74 507.452 500.885 507.677C501.031 507.895 501.104 508.165 501.104 508.485C501.104 509.118 500.874 509.613 500.416 509.969C499.965 510.326 499.339 510.522 498.539 510.558V511.432H497.818V510.558C497.207 510.515 496.709 510.395 496.323 510.198C495.937 509.995 495.65 509.733 495.461 509.412C495.272 509.085 495.159 508.721 495.123 508.321H495.974C495.996 508.779 496.181 509.125 496.53 509.358C496.88 509.583 497.309 509.722 497.818 509.773V507.11C497.505 507.03 497.2 506.942 496.902 506.848C496.61 506.753 496.345 506.633 496.105 506.487C495.872 506.342 495.686 506.164 495.548 505.953C495.41 505.742 495.341 505.48 495.341 505.167C495.341 504.607 495.545 504.145 495.952 503.781C496.367 503.41 496.989 503.206 497.818 503.17V502.34ZM496.138 505.156C496.138 505.374 496.214 505.556 496.367 505.702C496.52 505.84 496.723 505.956 496.978 506.051C497.233 506.145 497.513 506.233 497.818 506.313V503.944C497.345 503.966 496.989 504.046 496.749 504.185C496.509 504.323 496.345 504.483 496.258 504.665C496.178 504.839 496.138 505.003 496.138 505.156ZM500.285 508.518C500.285 508.285 500.205 508.092 500.045 507.939C499.885 507.786 499.674 507.659 499.412 507.557C499.15 507.455 498.859 507.364 498.539 507.284V509.784C499.077 509.762 499.503 509.645 499.816 509.434C500.129 509.223 500.285 508.918 500.285 508.518ZM507.356 510.482V508.638H503.907V507.841L506.942 503.257H508.175V507.906H509.146V508.638H508.175V510.482H507.356ZM504.671 507.906H507.356V503.955L504.671 507.906ZM510.016 510.482V510.035C510.016 509.678 510.114 509.354 510.311 509.063C510.507 508.765 510.758 508.488 511.064 508.234C511.369 507.979 511.697 507.735 512.046 507.502C512.395 507.262 512.723 507.03 513.028 506.804C513.334 506.578 513.585 506.346 513.782 506.105C513.978 505.858 514.076 505.596 514.076 505.32C514.076 504.898 513.934 504.567 513.651 504.326C513.374 504.086 512.974 503.966 512.45 503.966C511.97 503.966 511.577 504.075 511.271 504.294C510.973 504.505 510.795 504.814 510.736 505.221H509.918C509.962 504.807 510.096 504.446 510.322 504.141C510.555 503.828 510.853 503.588 511.217 503.421C511.58 503.253 511.984 503.17 512.428 503.17C512.952 503.17 513.396 503.264 513.76 503.453C514.131 503.642 514.411 503.897 514.6 504.217C514.797 504.537 514.895 504.898 514.895 505.298C514.895 505.633 514.804 505.945 514.622 506.236C514.44 506.527 514.204 506.8 513.912 507.055C513.621 507.31 513.312 507.55 512.985 507.775C512.665 508.001 512.355 508.223 512.057 508.441C511.759 508.652 511.511 508.863 511.315 509.074C511.118 509.278 511.009 509.485 510.987 509.696H514.873V510.482H510.016ZM518.329 510.569C517.507 510.569 516.871 510.369 516.419 509.969C515.968 509.569 515.743 509.049 515.743 508.408C515.743 507.994 515.866 507.615 516.114 507.273C516.369 506.924 516.707 506.669 517.129 506.509C516.969 506.451 516.801 506.36 516.627 506.236C516.459 506.105 516.318 505.938 516.201 505.734C516.085 505.523 516.027 505.276 516.027 504.992C516.027 504.454 516.223 504.017 516.616 503.682C517.016 503.341 517.587 503.17 518.329 503.17C519.072 503.17 519.639 503.341 520.032 503.682C520.432 504.017 520.632 504.454 520.632 504.992C520.632 505.276 520.574 505.523 520.458 505.734C520.341 505.938 520.196 506.105 520.021 506.236C519.854 506.36 519.69 506.451 519.53 506.509C519.959 506.669 520.298 506.924 520.545 507.273C520.792 507.615 520.916 507.994 520.916 508.408C520.916 509.049 520.691 509.569 520.239 509.969C519.788 510.369 519.152 510.569 518.329 510.569ZM518.329 506.16C518.555 506.16 518.781 506.124 519.006 506.051C519.239 505.971 519.432 505.847 519.585 505.68C519.737 505.512 519.814 505.298 519.814 505.036C519.814 504.694 519.676 504.428 519.399 504.239C519.123 504.05 518.766 503.955 518.329 503.955C517.893 503.955 517.536 504.05 517.26 504.239C516.983 504.428 516.845 504.694 516.845 505.036C516.845 505.298 516.921 505.512 517.074 505.68C517.227 505.847 517.416 505.971 517.642 506.051C517.875 506.124 518.104 506.16 518.329 506.16ZM518.329 509.784C518.868 509.784 519.297 509.66 519.617 509.412C519.937 509.158 520.098 508.819 520.098 508.397C520.098 508.085 520.018 507.819 519.857 507.601C519.697 507.375 519.483 507.204 519.213 507.088C518.952 506.971 518.657 506.913 518.329 506.913C518.009 506.913 517.715 506.971 517.445 507.088C517.176 507.204 516.962 507.375 516.801 507.601C516.641 507.819 516.561 508.085 516.561 508.397C516.561 508.819 516.721 509.158 517.042 509.412C517.362 509.66 517.791 509.784 518.329 509.784Z" fill="white"/>
<path opacity="0.5" d="M263.266 508.441V505.647H264.728C265.864 505.647 266.344 506.171 266.344 507.055C266.344 507.906 265.864 508.441 264.728 508.441H263.266ZM267.359 507.055C267.359 505.811 266.518 504.828 264.728 504.828H262.273V512.436H263.266V509.26H264.728C266.617 509.26 267.359 508.212 267.359 507.055ZM271.037 507.197C272.063 507.197 272.936 507.841 272.925 509.009H269.149C269.258 507.841 270.066 507.197 271.037 507.197ZM273.831 510.591H272.761C272.543 511.235 271.976 511.693 271.081 511.693C270.066 511.693 269.214 511.028 269.138 509.816H273.918C273.94 509.609 273.951 509.434 273.951 509.216C273.951 507.579 272.816 506.356 271.081 506.356C269.334 506.356 268.123 507.546 268.123 509.434C268.123 511.333 269.378 512.534 271.081 512.534C272.565 512.534 273.525 511.683 273.831 510.591ZM276.156 509.183C276.156 507.797 276.876 507.371 277.826 507.371H278.088V506.345C277.138 506.345 276.494 506.76 276.156 507.426V506.455H275.163V512.436H276.156V509.183ZM290.579 512.436H291.561V508.91C291.561 507.197 290.503 506.345 289.138 506.345C288.221 506.345 287.37 506.815 287.021 507.677C286.628 506.782 285.809 506.345 284.827 506.345C284.041 506.345 283.332 506.684 282.939 507.317V506.455H281.946V512.436H282.939V509.14C282.939 507.852 283.627 507.208 284.631 507.208C285.613 507.208 286.268 507.83 286.268 509.052V512.436H287.25V509.14C287.25 507.852 287.938 507.208 288.942 507.208C289.924 507.208 290.579 507.83 290.579 509.052V512.436ZM298.767 509.434C298.767 507.546 297.446 506.356 295.743 506.356C294.052 506.356 292.72 507.546 292.72 509.434C292.72 511.333 294.008 512.534 295.7 512.534C297.402 512.534 298.767 511.333 298.767 509.434ZM293.735 509.434C293.735 507.928 294.685 507.219 295.732 507.219C296.758 507.219 297.752 507.928 297.752 509.434C297.752 510.951 296.737 511.661 295.7 511.661C294.663 511.661 293.735 510.951 293.735 509.434ZM304.35 512.436H305.332V508.91C305.332 507.197 304.274 506.345 302.887 506.345C302.08 506.345 301.359 506.684 300.967 507.306V506.455H299.973V512.436H300.967V509.129C300.967 507.841 301.665 507.208 302.68 507.208C303.684 507.208 304.35 507.83 304.35 509.052V512.436ZM307.074 510.799C307.074 511.999 307.674 512.436 308.733 512.436H309.628V511.595H308.896C308.285 511.595 308.067 511.388 308.067 510.799V507.273H309.628V506.455H308.067V504.948H307.074V506.455H306.299V507.273H307.074V510.799ZM310.732 512.436H311.725V509.129C311.725 507.841 312.424 507.208 313.439 507.208C314.443 507.208 315.108 507.83 315.108 509.052V512.436H316.091V508.91C316.091 507.197 315.032 506.345 313.7 506.345C312.86 506.345 312.118 506.684 311.725 507.317V504.359H310.732V512.436Z" fill="white"/>
</g>
<defs>
<filter id="filter0_f_0_136" x="187.88" y="282" width="409" height="313" filterUnits="userSpaceOnUse" color-interpolation-filters="sRGB">
<feFlood flood-opacity="0" result="BackgroundImageFix"/>
<feBlend mode="normal" in="SourceGraphic" in2="BackgroundImageFix" result="shape"/>
<feGaussianBlur stdDeviation="50" result="effect1_foregroundBlur_0_136"/>
</filter>
<filter id="filter1_d_0_136" x="234.147" y="154.271" width="311.739" height="390.186" filterUnits="userSpaceOnUse" color-interpolation-filters="sRGB">
<feFlood flood-opacity="0" result="BackgroundImageFix"/>
<feColorMatrix in="SourceAlpha" type="matrix" values="0 0 0 0 0 0 0 0 0 0 0 0 0 0 0 0 0 0 127 0" result="hardAlpha"/>
<feOffset dx="-1.36429" dy="1.36429"/>
<feGaussianBlur stdDeviation="2.04643"/>
<feColorMatrix type="matrix" values="0 0 0 0 0.229073 0 0 0 0 0.274695 0 0 0 0 0.365939 0 0 0 0.11965 0"/>
<feBlend mode="normal" in2="BackgroundImageFix" result="effect1_dropShadow_0_136"/>
<feBlend mode="normal" in="SourceGraphic" in2="effect1_dropShadow_0_136" result="shape"/>
</filter>
<filter id="filter2_d_0_136" x="0.853718" y="0.107147" width="712.839" height="791.286" filterUnits="userSpaceOnUse" color-interpolation-filters="sRGB">
<feFlood flood-opacity="0" result="BackgroundImageFix"/>
<feColorMatrix in="SourceAlpha" type="matrix" values="0 0 0 0 0 0 0 0 0 0 0 0 0 0 0 0 0 0 127 0" result="hardAlpha"/>
<feOffset dx="-34.1071" dy="47.75"/>
<feGaussianBlur stdDeviation="102.321"/>
<feColorMatrix type="matrix" values="0 0 0 0 0.0223145 0 0 0 0 0.0232248 0 0 0 0 0.0627548 0 0 0 0.159528 0"/>
<feBlend mode="normal" in2="BackgroundImageFix" result="effect1_dropShadow_0_136"/>
<feBlend mode="normal" in="SourceGraphic" in2="effect1_dropShadow_0_136" result="shape"/>
</filter>
<filter id="filter3_d_0_136" x="207.543" y="318.668" width="61.3929" height="61.3929" filterUnits="userSpaceOnUse" color-interpolation-filters="sRGB">
<feFlood flood-opacity="0" result="BackgroundImageFix"/>
<feColorMatrix in="SourceAlpha" type="matrix" values="0 0 0 0 0 0 0 0 0 0 0 0 0 0 0 0 0 0 127 0" result="hardAlpha"/>
<feOffset dx="-1.36429" dy="1.36429"/>
<feGaussianBlur stdDeviation="2.04643"/>
<feColorMatrix type="matrix" values="0 0 0 0 0.229073 0 0 0 0 0.274695 0 0 0 0 0.365939 0 0 0 0.11965 0"/>
<feBlend mode="normal" in2="BackgroundImageFix" result="effect1_dropShadow_0_136"/>
<feBlend mode="normal" in="SourceGraphic" in2="effect1_dropShadow_0_136" result="shape"/>
</filter>
<filter id="filter4_d_0_136" x="511.097" y="318.668" width="61.3929" height="61.3929" filterUnits="userSpaceOnUse" color-interpolation-filters="sRGB">
<feFlood flood-opacity="0" result="BackgroundImageFix"/>
<feColorMatrix in="SourceAlpha" type="matrix" values="0 0 0 0 0 0 0 0 0 0 0 0 0 0 0 0 0 0 127 0" result="hardAlpha"/>
<feOffset dx="-1.36429" dy="1.36429"/>
<feGaussianBlur stdDeviation="2.04643"/>
<feColorMatrix type="matrix" values="0 0 0 0 0.229073 0 0 0 0 0.274695 0 0 0 0 0.365939 0 0 0 0.11965 0"/>
<feBlend mode="normal" in2="BackgroundImageFix" result="effect1_dropShadow_0_136"/>
<feBlend mode="normal" in="SourceGraphic" in2="effect1_dropShadow_0_136" result="shape"/>
</filter>
<clipPath id="clip0_0_136">
<rect width="176.675" height="184.179" fill="white" transform="translate(304.407 242.268)"/>
</clipPath>
<clipPath id="clip1_0_136">
<rect width="83.2214" height="46.3857" fill="white" transform="translate(348.746 300.25)"/>
</clipPath>
<clipPath id="clip2_0_136">
<rect width="259.896" height="40.9286" fill="white" transform="translate(261.432 476.243)"/>
</clipPath>
</defs>
</svg>
