<svg width="108" height="109" viewBox="0 0 108 109" fill="none" xmlns="http://www.w3.org/2000/svg">
<g filter="url(#filter0_d_0_17)">
<circle cx="54" cy="60.1675" r="25" fill="#1C1C1C"/>
<path d="M70.6052 69.3086L73.4037 71.1743M73.4037 59.6071H76.9485M70.6052 50.4653L73.4037 48.7862M63.1425 44.1221L65.5679 40.3907M54.1873 36.8459V41.3236M43.1799 40.3907L45.0455 44.1221M35.5306 48.7862L38.5157 50.4653M31.053 59.6071H35.5306M34.7843 71.1743L38.5157 69.3086M43.1799 79.3833L45.0455 75.6519M54.1873 77.8907V82.3683M63.1425 75.6519L65.5679 79.3833M54.1873 44.1221V57.3683M56.053 61.6594L63.1425 67.8161" stroke="#E5F4F4" stroke-width="1.83333"/>
<circle cx="54.3725" cy="59.7948" r="1.69527" stroke="#E5F4F4" stroke-width="1.83333"/>
</g>
<defs>
<filter id="filter0_d_0_17" x="0" y="0.16748" width="108" height="108" filterUnits="userSpaceOnUse" color-interpolation-filters="sRGB">
<feFlood flood-opacity="0" result="BackgroundImageFix"/>
<feColorMatrix in="SourceAlpha" type="matrix" values="0 0 0 0 0 0 0 0 0 0 0 0 0 0 0 0 0 0 127 0" result="hardAlpha"/>
<feOffset dy="-6"/>
<feGaussianBlur stdDeviation="14.5"/>
<feColorMatrix type="matrix" values="0 0 0 0 0 0 0 0 0 0 0 0 0 0 0 0 0 0 0.1 0"/>
<feBlend mode="normal" in2="BackgroundImageFix" result="effect1_dropShadow_0_17"/>
<feBlend mode="normal" in="SourceGraphic" in2="effect1_dropShadow_0_17" result="shape"/>
</filter>
</defs>
</svg>
