<svg width="212" height="217" viewBox="0 0 212 217" fill="none" xmlns="http://www.w3.org/2000/svg">
<g filter="url(#filter0_dddddd_0_27)">
<path d="M114.477 1.8821C111.451 1.87781 108.478 2.67388 105.86 4.18956C108.481 5.70202 110.658 7.87852 112.171 10.4999C113.684 13.1213 114.479 16.095 114.477 19.1216H97.2422C97.2422 22.5314 98.2534 25.8647 100.148 28.6998C102.042 31.5349 104.735 33.7445 107.886 35.0492C111.036 36.3539 114.502 36.695 117.847 36.0294C121.191 35.3639 124.263 33.7215 126.674 31.31C129.084 28.8986 130.726 25.8264 131.391 22.4819C132.055 19.1375 131.713 15.671 130.408 12.521C129.102 9.371 126.892 6.67889 124.056 4.78516C121.22 2.89143 117.887 1.88116 114.477 1.8821Z" fill="#2805FF"/>
</g>
<path d="M105.86 4.18945C103.238 5.70191 101.061 7.87841 99.5484 10.4998C98.0356 13.1212 97.2402 16.0949 97.2423 19.1215H114.477C114.479 16.0949 113.684 13.1212 112.171 10.4998C110.658 7.87841 108.481 5.70191 105.86 4.18945Z" fill="url(#paint0_linear_0_27)"/>
<g filter="url(#filter1_dddddd_0_27)">
<path d="M105.86 4.18947C108.481 5.70193 110.658 7.87843 112.171 10.4998C113.684 13.1212 114.479 16.0949 114.477 19.1215H97.2422C97.2409 22.1473 98.0367 25.12 99.5495 27.7405C101.062 30.3609 103.239 32.5367 105.86 34.0488C103.239 35.5619 100.266 36.3585 97.2397 36.3586C94.2136 36.3586 91.2407 35.5621 88.6199 34.049C85.9991 32.536 83.8228 30.3597 82.3097 27.7389C80.7966 25.1182 80 22.1453 80 19.1191C80 16.0929 80.7966 13.12 82.3097 10.4993C83.8228 7.87855 85.9991 5.70227 88.6199 4.1892C91.2407 2.67613 94.2136 1.87959 97.2397 1.87964C100.266 1.87969 103.239 2.67632 105.86 4.18947Z" fill="#FB1475"/>
</g>
<defs>
<filter id="filter0_dddddd_0_27" x="17.2422" y="0.585784" width="194.479" height="215.775" filterUnits="userSpaceOnUse" color-interpolation-filters="sRGB">
<feFlood flood-opacity="0" result="BackgroundImageFix"/>
<feColorMatrix in="SourceAlpha" type="matrix" values="0 0 0 0 0 0 0 0 0 0 0 0 0 0 0 0 0 0 127 0" result="hardAlpha"/>
<feOffset dy="1.85185"/>
<feGaussianBlur stdDeviation="1.57407"/>
<feColorMatrix type="matrix" values="0 0 0 0 0.156863 0 0 0 0 0.0196078 0 0 0 0 1 0 0 0 0.0288889 0"/>
<feBlend mode="normal" in2="BackgroundImageFix" result="effect1_dropShadow_0_27"/>
<feColorMatrix in="SourceAlpha" type="matrix" values="0 0 0 0 0 0 0 0 0 0 0 0 0 0 0 0 0 0 127 0" result="hardAlpha"/>
<feOffset dy="8.14815"/>
<feGaussianBlur stdDeviation="3.25926"/>
<feColorMatrix type="matrix" values="0 0 0 0 0.156863 0 0 0 0 0.0196078 0 0 0 0 1 0 0 0 0.0471111 0"/>
<feBlend mode="normal" in2="effect1_dropShadow_0_27" result="effect2_dropShadow_0_27"/>
<feColorMatrix in="SourceAlpha" type="matrix" values="0 0 0 0 0 0 0 0 0 0 0 0 0 0 0 0 0 0 127 0" result="hardAlpha"/>
<feOffset dy="20"/>
<feGaussianBlur stdDeviation="6.5"/>
<feColorMatrix type="matrix" values="0 0 0 0 0.156863 0 0 0 0 0.0196078 0 0 0 0 1 0 0 0 0.06 0"/>
<feBlend mode="normal" in2="effect2_dropShadow_0_27" result="effect3_dropShadow_0_27"/>
<feColorMatrix in="SourceAlpha" type="matrix" values="0 0 0 0 0 0 0 0 0 0 0 0 0 0 0 0 0 0 127 0" result="hardAlpha"/>
<feOffset dy="38.5185"/>
<feGaussianBlur stdDeviation="12.7407"/>
<feColorMatrix type="matrix" values="0 0 0 0 0.156863 0 0 0 0 0.0196078 0 0 0 0 1 0 0 0 0.0728889 0"/>
<feBlend mode="normal" in2="effect3_dropShadow_0_27" result="effect4_dropShadow_0_27"/>
<feColorMatrix in="SourceAlpha" type="matrix" values="0 0 0 0 0 0 0 0 0 0 0 0 0 0 0 0 0 0 127 0" result="hardAlpha"/>
<feOffset dy="64.8148"/>
<feGaussianBlur stdDeviation="23.4259"/>
<feColorMatrix type="matrix" values="0 0 0 0 0.156863 0 0 0 0 0.0196078 0 0 0 0 1 0 0 0 0.0911111 0"/>
<feBlend mode="normal" in2="effect4_dropShadow_0_27" result="effect5_dropShadow_0_27"/>
<feColorMatrix in="SourceAlpha" type="matrix" values="0 0 0 0 0 0 0 0 0 0 0 0 0 0 0 0 0 0 127 0" result="hardAlpha"/>
<feOffset dy="100"/>
<feGaussianBlur stdDeviation="40"/>
<feColorMatrix type="matrix" values="0 0 0 0 0.156863 0 0 0 0 0.0196078 0 0 0 0 1 0 0 0 0.12 0"/>
<feBlend mode="normal" in2="effect5_dropShadow_0_27" result="effect6_dropShadow_0_27"/>
<feBlend mode="normal" in="SourceGraphic" in2="effect6_dropShadow_0_27" result="shape"/>
</filter>
<filter id="filter1_dddddd_0_27" x="0" y="0.583342" width="194.477" height="215.775" filterUnits="userSpaceOnUse" color-interpolation-filters="sRGB">
<feFlood flood-opacity="0" result="BackgroundImageFix"/>
<feColorMatrix in="SourceAlpha" type="matrix" values="0 0 0 0 0 0 0 0 0 0 0 0 0 0 0 0 0 0 127 0" result="hardAlpha"/>
<feOffset dy="1.85185"/>
<feGaussianBlur stdDeviation="1.57407"/>
<feColorMatrix type="matrix" values="0 0 0 0 0.917647 0 0 0 0 0 0 0 0 0 0.145098 0 0 0 0.0264815 0"/>
<feBlend mode="normal" in2="BackgroundImageFix" result="effect1_dropShadow_0_27"/>
<feColorMatrix in="SourceAlpha" type="matrix" values="0 0 0 0 0 0 0 0 0 0 0 0 0 0 0 0 0 0 127 0" result="hardAlpha"/>
<feOffset dy="8.14815"/>
<feGaussianBlur stdDeviation="3.25926"/>
<feColorMatrix type="matrix" values="0 0 0 0 0.917647 0 0 0 0 0 0 0 0 0 0.145098 0 0 0 0.0431852 0"/>
<feBlend mode="normal" in2="effect1_dropShadow_0_27" result="effect2_dropShadow_0_27"/>
<feColorMatrix in="SourceAlpha" type="matrix" values="0 0 0 0 0 0 0 0 0 0 0 0 0 0 0 0 0 0 127 0" result="hardAlpha"/>
<feOffset dy="20"/>
<feGaussianBlur stdDeviation="6.5"/>
<feColorMatrix type="matrix" values="0 0 0 0 0.917647 0 0 0 0 0 0 0 0 0 0.145098 0 0 0 0.055 0"/>
<feBlend mode="normal" in2="effect2_dropShadow_0_27" result="effect3_dropShadow_0_27"/>
<feColorMatrix in="SourceAlpha" type="matrix" values="0 0 0 0 0 0 0 0 0 0 0 0 0 0 0 0 0 0 127 0" result="hardAlpha"/>
<feOffset dy="38.5185"/>
<feGaussianBlur stdDeviation="12.7407"/>
<feColorMatrix type="matrix" values="0 0 0 0 0.917647 0 0 0 0 0 0 0 0 0 0.145098 0 0 0 0.0668148 0"/>
<feBlend mode="normal" in2="effect3_dropShadow_0_27" result="effect4_dropShadow_0_27"/>
<feColorMatrix in="SourceAlpha" type="matrix" values="0 0 0 0 0 0 0 0 0 0 0 0 0 0 0 0 0 0 127 0" result="hardAlpha"/>
<feOffset dy="64.8148"/>
<feGaussianBlur stdDeviation="23.4259"/>
<feColorMatrix type="matrix" values="0 0 0 0 0.917647 0 0 0 0 0 0 0 0 0 0.145098 0 0 0 0.0835185 0"/>
<feBlend mode="normal" in2="effect4_dropShadow_0_27" result="effect5_dropShadow_0_27"/>
<feColorMatrix in="SourceAlpha" type="matrix" values="0 0 0 0 0 0 0 0 0 0 0 0 0 0 0 0 0 0 127 0" result="hardAlpha"/>
<feOffset dy="100"/>
<feGaussianBlur stdDeviation="40"/>
<feColorMatrix type="matrix" values="0 0 0 0 0.917647 0 0 0 0 0 0 0 0 0 0.145098 0 0 0 0.11 0"/>
<feBlend mode="normal" in2="effect5_dropShadow_0_27" result="effect6_dropShadow_0_27"/>
<feBlend mode="normal" in="SourceGraphic" in2="effect6_dropShadow_0_27" result="shape"/>
</filter>
<linearGradient id="paint0_linear_0_27" x1="88.5062" y1="32.0689" x2="115.821" y2="5.89393" gradientUnits="userSpaceOnUse">
<stop stop-color="#FFCF8E"/>
<stop offset="1" stop-color="#FF8B79"/>
</linearGradient>
</defs>
</svg>
