<svg width="144" height="147" viewBox="0 0 144 147" fill="none" xmlns="http://www.w3.org/2000/svg">
<g opacity="0.2" filter="url(#filter0_d_0_103)">
<circle cx="72" cy="45" r="45" fill="#FAB33F"/>
</g>
<g clip-path="url(#clip0_0_103)">
<path d="M91.18 25.0048C83.3717 24.8648 74.4667 28.9465 68.83 35.2782C63.4433 35.3798 58.1983 37.5882 54.3367 41.4498C54.1117 41.6715 54.0317 42.0032 54.13 42.3032C54.23 42.6048 54.49 42.8232 54.8033 42.8682L61.2267 43.7882L60.4333 44.6765C60.1383 45.0065 60.1533 45.5082 60.4667 45.8215L71.1784 56.5332C71.34 56.6948 71.5534 56.7765 71.7684 56.7765C71.9667 56.7765 72.165 56.7065 72.3234 56.5648L73.2117 55.7715L74.1317 62.1948C74.1767 62.5082 74.4234 62.7382 74.7217 62.8382C74.7984 62.8632 74.8784 62.8748 74.96 62.8748C75.1967 62.8748 75.4384 62.7715 75.605 62.6065C79.4134 58.7982 81.6217 53.5532 81.7234 48.1665C88.0617 42.5182 92.1767 33.6165 91.995 25.8182C91.9833 25.3748 91.625 25.0165 91.18 25.0048ZM83.5 39.3915C82.6884 40.2032 81.6217 40.6098 80.5534 40.6098C79.485 40.6098 78.4184 40.2032 77.6067 39.3915C75.9834 37.7665 75.9834 35.1232 77.6067 33.4982C79.2317 31.8732 81.875 31.8732 83.5 33.4982C85.125 35.1232 85.125 37.7682 83.5 39.3915Z" fill="#FCC101"/>
<path d="M56.54 53.1758C54.7567 54.9591 52.3083 63.0158 52.035 63.9275C51.9467 64.2208 52.0283 64.5391 52.2433 64.7558C52.4033 64.9158 52.615 65.0008 52.8333 65.0008C52.9133 65.0008 52.9933 64.9891 53.0733 64.9658C53.985 64.6925 62.0417 62.2441 63.825 60.4608C65.8333 58.4525 65.8333 55.1841 63.825 53.1758C61.815 51.1675 58.5483 51.1691 56.54 53.1758Z" fill="#FCC101"/>
</g>
<defs>
<filter id="filter0_d_0_103" x="0" y="0" width="144" height="147" filterUnits="userSpaceOnUse" color-interpolation-filters="sRGB">
<feFlood flood-opacity="0" result="BackgroundImageFix"/>
<feColorMatrix in="SourceAlpha" type="matrix" values="0 0 0 0 0 0 0 0 0 0 0 0 0 0 0 0 0 0 127 0" result="hardAlpha"/>
<feMorphology radius="8" operator="erode" in="SourceAlpha" result="effect1_dropShadow_0_103"/>
<feOffset dy="30"/>
<feGaussianBlur stdDeviation="17.5"/>
<feColorMatrix type="matrix" values="0 0 0 0 0.980392 0 0 0 0 0.701961 0 0 0 0 0.247059 0 0 0 0.15 0"/>
<feBlend mode="normal" in2="BackgroundImageFix" result="effect1_dropShadow_0_103"/>
<feBlend mode="normal" in="SourceGraphic" in2="effect1_dropShadow_0_103" result="shape"/>
</filter>
<clipPath id="clip0_0_103">
<rect width="40" height="40" fill="white" transform="translate(52 25)"/>
</clipPath>
</defs>
</svg>
