<svg width="77" height="22" viewBox="0 0 77 22" fill="none" xmlns="http://www.w3.org/2000/svg">
<path d="M7.96561 4.04926C8.21103 3.02726 9.66491 3.02725 9.91033 4.04926L10.5791 6.83431C10.6871 7.28387 11.0891 7.60081 11.5515 7.60081H14.226C15.121 7.60081 15.5653 8.68647 14.927 9.31393L12.2946 11.9018C12.0443 12.1479 11.9413 12.5071 12.0233 12.8484L12.9017 16.5066C13.1364 17.4837 11.9449 18.1577 11.2283 17.4532L9.63902 15.8908C9.24992 15.5083 8.62602 15.5083 8.23693 15.8908L6.64761 17.4532C5.93102 18.1577 4.73957 17.4837 4.9742 16.5066L5.85265 12.8484C5.93461 12.5071 5.83164 12.1479 5.58134 11.9018L2.94891 9.31393C2.31065 8.68647 2.75493 7.60081 3.64996 7.60081H6.32448C6.78682 7.60081 7.18888 7.28387 7.29684 6.83431L7.96561 4.04926Z" fill="#060FE6"/>
<path d="M22.7466 4.04926C22.992 3.02726 24.4459 3.02725 24.6913 4.04926L25.3601 6.83431C25.4681 7.28387 25.8701 7.60081 26.3325 7.60081H29.007C29.902 7.60081 30.3463 8.68647 29.708 9.31393L27.0756 11.9018C26.8253 12.1479 26.7223 12.5071 26.8043 12.8484L27.6827 16.5066C27.9174 17.4837 26.7259 18.1577 26.0093 17.4532L24.42 15.8908C24.0309 15.5083 23.407 15.5083 23.0179 15.8908L21.4286 17.4532C20.712 18.1577 19.5206 17.4837 19.7552 16.5066L20.6337 12.8484C20.7156 12.5071 20.6126 12.1479 20.3623 11.9018L17.7299 9.31393C17.0917 8.68647 17.5359 7.60081 18.431 7.60081H21.1055C21.5678 7.60081 21.9699 7.28387 22.0778 6.83431L22.7466 4.04926Z" fill="#060FE6"/>
<path d="M37.5276 4.04926C37.773 3.02726 39.2269 3.02725 39.4723 4.04926L40.1411 6.83431C40.2491 7.28387 40.6511 7.60081 41.1135 7.60081H43.788C44.683 7.60081 45.1273 8.68647 44.489 9.31393L41.8566 11.9018C41.6063 12.1479 41.5034 12.5071 41.5853 12.8484L42.4638 16.5066C42.6984 17.4837 41.5069 18.1577 40.7904 17.4532L39.201 15.8908C38.8119 15.5083 38.188 15.5083 37.7989 15.8908L36.2096 17.4532C35.493 18.1577 34.3016 17.4837 34.5362 16.5066L35.4147 12.8484C35.4966 12.5071 35.3936 12.1479 35.1434 11.9018L32.5109 9.31393C31.8727 8.68647 32.3169 7.60081 33.212 7.60081H35.8865C36.3488 7.60081 36.7509 7.28387 36.8588 6.83431L37.5276 4.04926Z" fill="#060FE6"/>
<path d="M52.3087 4.04926C52.5541 3.02726 54.008 3.02725 54.2534 4.04926L54.9222 6.83431C55.0301 7.28387 55.4322 7.60081 55.8945 7.60081H58.569C59.4641 7.60081 59.9083 8.68647 59.2701 9.31393L56.6377 11.9018C56.3874 12.1479 56.2844 12.5071 56.3663 12.8484L57.2448 16.5066C57.4794 17.4837 56.288 18.1577 55.5714 17.4532L53.9821 15.8908C53.593 15.5083 52.9691 15.5083 52.58 15.8908L50.9907 17.4532C50.2741 18.1577 49.0826 17.4837 49.3172 16.5066L50.1957 12.8484C50.2777 12.5071 50.1747 12.1479 49.9244 11.9018L47.292 9.31393C46.6537 8.68647 47.098 7.60081 47.993 7.60081H50.6675C51.1299 7.60081 51.5319 7.28387 51.6399 6.83431L52.3087 4.04926Z" fill="#060FE6"/>
<path d="M67.0897 4.04926C67.3351 3.02726 68.789 3.02725 69.0344 4.04926L69.7032 6.83431C69.8111 7.28387 70.2132 7.60081 70.6756 7.60081H73.3501C74.2451 7.60081 74.6894 8.68647 74.0511 9.31393L71.4187 11.9018C71.1684 12.1479 71.0654 12.5071 71.1474 12.8484L72.0258 16.5066C72.2605 17.4837 71.069 18.1577 70.3524 17.4532L68.7631 15.8908C68.374 15.5083 67.7501 15.5083 67.361 15.8908L65.7717 17.4532C65.0551 18.1577 63.8637 17.4837 64.0983 16.5066L64.9767 12.8484C65.0587 12.5071 64.9557 12.1479 64.7054 11.9018L62.073 9.31393C61.4347 8.68647 61.879 7.60081 62.774 7.60081H65.4486C65.9109 7.60081 66.313 7.28387 66.4209 6.83431L67.0897 4.04926Z" fill="#060FE6"/>
</svg>
