<svg width="40" height="40" viewBox="0 0 40 40" fill="none" xmlns="http://www.w3.org/2000/svg">
<g clip-path="url(#clip0_0_105)">
<path d="M39.18 0.00483385C31.3717 -0.135166 22.4667 3.9465 16.83 10.2782C11.4433 10.3798 6.19835 12.5882 2.33668 16.4498C2.11168 16.6715 2.03168 17.0032 2.13002 17.3032C2.23002 17.6048 2.49002 17.8232 2.80335 17.8682L9.22668 18.7882L8.43335 19.6765C8.13835 20.0065 8.15335 20.5082 8.46668 20.8215L19.1783 31.5332C19.34 31.6948 19.5534 31.7765 19.7684 31.7765C19.9667 31.7765 20.165 31.7065 20.3234 31.5648L21.2117 30.7715L22.1317 37.1948C22.1767 37.5082 22.4234 37.7382 22.7217 37.8382C22.7984 37.8632 22.8784 37.8748 22.96 37.8748C23.1967 37.8748 23.4384 37.7715 23.605 37.6065C27.4134 33.7982 29.6217 28.5532 29.7233 23.1665C36.0617 17.5182 40.1767 8.6165 39.995 0.818167C39.9834 0.374834 39.625 0.0165005 39.18 0.00483385V0.00483385ZM31.5 14.3915C30.6883 15.2032 29.6217 15.6098 28.5534 15.6098C27.485 15.6098 26.4184 15.2032 25.6067 14.3915C23.9834 12.7665 23.9834 10.1232 25.6067 8.49817C27.2317 6.87317 29.875 6.87317 31.5 8.49817C33.125 10.1232 33.125 12.7682 31.5 14.3915Z" fill="#FCC101"/>
<path d="M4.54 28.1758C2.75667 29.9591 0.308337 38.0158 0.0350041 38.9275C-0.0533292 39.2208 0.0283375 39.5391 0.243337 39.7558C0.403337 39.9158 0.615004 40.0008 0.833337 40.0008C0.913337 40.0008 0.993337 39.9891 1.07334 39.9658C1.985 39.6925 10.0417 37.2441 11.825 35.4608C13.8333 33.4525 13.8333 30.1841 11.825 28.1758C9.815 26.1675 6.54834 26.1691 4.54 28.1758V28.1758Z" fill="#FCC101"/>
</g>
<defs>
<clipPath id="clip0_0_105">
<rect width="40" height="40" fill="white"/>
</clipPath>
</defs>
</svg>
