<svg width="14" height="15" viewBox="0 0 14 15" fill="none" xmlns="http://www.w3.org/2000/svg">
<path d="M5.96561 1.04926C6.21103 0.027256 7.66491 0.0272526 7.91033 1.04926L8.57911 3.83431C8.68707 4.28387 9.08913 4.60081 9.55147 4.60081H12.226C13.121 4.60081 13.5653 5.68647 12.927 6.31393L10.2946 8.90181C10.0443 9.14786 9.94134 9.50713 10.0233 9.84842L10.9017 13.5066C11.1364 14.4837 9.94493 15.1577 9.22834 14.4532L7.63902 12.8908C7.24992 12.5083 6.62602 12.5083 6.23693 12.8908L4.64761 14.4532C3.93102 15.1577 2.73957 14.4837 2.9742 13.5066L3.85265 9.84842C3.93461 9.50713 3.83164 9.14786 3.58134 8.90181L0.948908 6.31393C0.310651 5.68647 0.75493 4.60081 1.64996 4.60081H4.32448C4.78682 4.60081 5.18888 4.28387 5.29684 3.83431L5.96561 1.04926Z" fill="#060FE6"/>
</svg>
