<svg width="50" height="50" viewBox="0 0 50 50" fill="none" xmlns="http://www.w3.org/2000/svg">
<circle cx="25" cy="25" r="25" fill="#7C4FCF"/>
<g clip-path="url(#clip0_0_90)">
<path d="M19.544 25.9091H15.9076C15.3622 25.9091 14.9985 26.2727 14.9985 26.8182V34.0909C14.9985 34.6364 15.3622 35 15.9076 35H19.544C20.0894 35 20.4531 34.6364 20.4531 34.0909V26.8182C20.4531 26.2727 20.0894 25.9091 19.544 25.9091ZM34.0894 22.2727H30.4531C29.9076 22.2727 29.544 22.6364 29.544 23.1818V34.0909C29.544 34.6364 29.9076 35 30.4531 35H34.0894C34.6349 35 34.9985 34.6364 34.9985 34.0909V23.1818C34.9985 22.6364 34.6349 22.2727 34.0894 22.2727ZM26.8167 15H23.1804C22.6349 15 22.2713 15.3636 22.2713 15.9091V34.0909C22.2713 34.6364 22.6349 35 23.1804 35H26.8167C27.3622 35 27.7258 34.6364 27.7258 34.0909V15.9091C27.7258 15.3636 27.3622 15 26.8167 15Z" fill="white"/>
</g>
<defs>
<clipPath id="clip0_0_90">
<rect width="20" height="20" fill="white" transform="translate(15 15)"/>
</clipPath>
</defs>
</svg>
