<svg width="50" height="50" viewBox="0 0 50 50" fill="none" xmlns="http://www.w3.org/2000/svg">
<circle cx="25" cy="25" r="25" fill="#EE2A52"/>
<g clip-path="url(#clip0_0_83)">
<path d="M21.4363 19.0095H19.6541C21.1393 17.7223 22.9214 17.0293 24.9016 17.0293C25.1987 17.0293 25.4957 17.0293 25.7927 17.1283C26.2878 17.2273 26.7828 16.8313 26.8818 16.2372C26.9809 15.7421 26.5848 15.2471 25.9908 15.1481C25.5947 15.0491 25.2977 15.0491 24.9016 15.0491C22.5254 15.0491 20.2482 15.9402 18.466 17.4253V16.0392C18.466 15.4451 18.07 15.0491 17.4759 15.0491C16.8818 15.0491 16.4858 15.4451 16.4858 16.0392V19.9996C16.4858 20.5936 16.8818 20.9897 17.4759 20.9897H21.4363C22.0304 20.9897 22.4264 20.5936 22.4264 19.9996C22.4264 19.4055 22.0304 19.0095 21.4363 19.0095ZM19.9512 27.4253C19.3571 27.4253 18.9611 27.8214 18.9611 28.4154V30.1976C17.6739 28.7124 16.9809 26.9303 16.9809 24.9501C16.9809 24.653 16.9809 24.356 17.0799 24.059C17.1789 23.5639 16.7828 23.0689 16.1888 22.9699C15.6937 22.8709 15.1987 23.2669 15.0997 23.861C15.0007 24.257 15.0007 24.554 15.0007 24.9501C15.0007 27.3263 15.8917 29.6035 17.3769 31.3857H15.9908C15.3967 31.3857 15.0007 31.7817 15.0007 32.3758C15.0007 32.9699 15.3967 33.3659 15.9908 33.3659H19.9512C20.2482 33.3659 20.5452 33.1679 20.7432 32.9699C20.7432 32.8709 20.8422 32.7718 20.8422 32.6728C20.8422 32.5738 20.8422 32.5738 20.8422 32.4748V32.3758V28.4154C20.9412 27.8214 20.5452 27.4253 19.9512 27.4253ZM33.8125 18.5144C34.4066 18.5144 34.8026 18.1184 34.8026 17.5243C34.8026 16.9303 34.4066 16.5342 33.8125 16.5342H29.8521C29.7531 16.5342 29.7531 16.5342 29.6541 16.5342C29.5551 16.5342 29.4561 16.6332 29.3571 16.6332C29.2581 16.7322 29.1591 16.7322 29.1591 16.8313C29.1591 16.9303 29.0601 17.0293 29.0601 17.0293C29.0601 17.1283 29.0601 17.1283 29.0601 17.2273V17.3263V21.2867C29.0601 21.8808 29.4561 22.2768 30.0502 22.2768C30.6442 22.2768 31.0403 21.8808 31.0403 21.2867V19.7025C32.3274 21.0887 33.0205 22.9699 33.0205 24.9501C33.0205 25.2471 33.0205 25.5441 32.9214 25.8412C32.8224 26.3362 33.2185 26.8313 33.8125 26.9303H33.9115C34.4066 26.9303 34.8026 26.5342 34.9016 26.0392C34.9016 25.6431 35.0007 25.3461 35.0007 24.9501C35.0007 22.5738 34.1096 20.2966 32.6244 18.5144H33.8125ZM33.1195 29.4055C33.0205 29.3065 32.9214 29.2075 32.8224 29.1085C32.7234 29.0095 32.6244 29.0095 32.5254 29.0095H32.4264H32.3274H28.367C27.7729 29.0095 27.3769 29.4055 27.3769 29.9996C27.3769 30.5936 27.7729 30.9897 28.367 30.9897H30.1492C28.763 32.2768 26.8818 32.9699 24.9016 32.9699C24.6046 32.9699 24.3076 32.9699 24.0106 32.8709C23.5155 32.7718 23.0205 33.1679 22.9214 33.7619C22.8224 34.356 23.2185 34.752 23.8125 34.8511C24.2086 34.8511 24.5056 34.9501 24.9016 34.9501C27.2779 34.9501 29.5551 34.059 31.3373 32.5738V33.861C31.3373 34.455 31.7333 34.8511 32.3274 34.8511C32.9214 34.8511 33.3175 34.455 33.3175 33.861V29.9006C33.3175 29.7025 33.2185 29.5045 33.1195 29.4055Z" fill="white"/>
</g>
<defs>
<clipPath id="clip0_0_83">
<rect width="20" height="20" fill="white" transform="translate(15 15)"/>
</clipPath>
</defs>
</svg>
